<svg height="512pt" viewBox="-12 0 512 512" width="512pt" xmlns="http://www.w3.org/2000/svg"><path d="m372.5 108.941406v375.558594c0 11.050781-8.949219 20-20 20h-325c-11.050781 0-20-8.949219-20-20v-457c0-11.050781 8.949219-20 20-20h243.710938c2.890624 0 5.710937.621094 8.289062 1.800781 2.171875.980469 4.148438 2.359375 5.859375 4.070313l81.300781 81.4375c1.660156 1.660156 3 3.601562 3.96875 5.691406 1.222656 2.621094 1.871094 5.5 1.871094 8.441406zm0 0" fill="#efefef"/><path d="m372.5 108.941406v345.558594c0 11.050781-8.949219 20-20 20h-10v-365.558594c0-2.941406-.648438-5.820312-1.871094-8.441406-.96875-2.089844-2.308594-4.03125-3.96875-5.691406h30c1.660156 1.660156 3 3.601562 3.96875 5.691406 1.222656 2.621094 1.871094 5.5 1.871094 8.441406zm0 0" fill="#d8d8d8"/><path d="m372.5 454.5v30c0 11.050781-8.949219 20-20 20h-325c-11.050781 0-20-8.949219-20-20v-30c0 11.050781 8.949219 20 20 20h325c11.050781 0 20-8.949219 20-20zm0 0" fill="#d8d8d8"/><path d="m372.5 454.5v30c0 11.050781-8.949219 20-20 20h-30c11.050781 0 20-8.949219 20-20v-10h10c11.050781 0 20-8.949219 20-20zm0 0" fill="#afafaf"/><path d="m57.5 75.5c-5.523438 0-10 4.476562-10 10v35c0 5.523438 4.476562 10 10 10h265c5.523438 0 10-4.476562 10-10v-45zm0 0" fill="#aac9e2"/><path d="m370.628906 100.5h-71.128906c-11.050781 0-20-8.949219-20-20v-71.199219c2.171875.980469 4.148438 2.359375 5.859375 4.070313l81.300781 81.4375c1.660156 1.660156 3 3.601562 3.96875 5.691406zm0 0" fill="#d8d8d8"/><g fill="#ea9292"><path d="m118.5 370.5h-20c-2.761719 0-5 2.238281-5 5v50c0 2.761719 2.238281 5 5 5h20c2.761719 0 5-2.238281 5-5v-50c0-2.761719-2.238281-5-5-5zm0 0"/><path d="m178.5 310.5h-20c-2.761719 0-5 2.238281-5 5v110c0 2.761719 2.238281 5 5 5h20c2.761719 0 5-2.238281 5-5v-110c0-2.761719-2.238281-5-5-5zm0 0"/><path d="m238.5 250.5h-20c-2.761719 0-5 2.238281-5 5v170c0 2.761719 2.238281 5 5 5h20c2.761719 0 5-2.238281 5-5v-170c0-2.761719-2.238281-5-5-5zm0 0"/><path d="m273.5 293.5v131c0 2.761719 2.238281 5 5 5h20c2.761719 0 5-2.238281 5-5l.320312-71.5zm0 0"/></g><path d="m480.5 294-116.359375 41-40.761719-129.550781c15.640625-9.488281 33.992188-14.949219 53.621094-14.949219 57.160156 0 103.5 46.339844 103.5 103.5zm0 0" fill="#ef9867"/><path d="m480.5 294c0 57.160156-46.339844 103.5-103.5 103.5s-103.5-46.339844-103.5-103.5c0-37.53125 19.980469-70.398438 49.878906-88.550781l53.621094 88.550781zm0 0" fill="#f2d67c"/><path d="m480.5 294h-30.011719c-.308593-52.539062-39.769531-95.800781-90.679687-102.078125 5.589844-.941406 11.332031-1.421875 17.191406-1.421875 57.160156 0 103.5 46.339844 103.5 103.5zm0 0" fill="#d16346"/><path d="m480.5 294c0 57.160156-46.339844 103.5-103.5 103.5-4.359375 0-8.648438-.269531-12.859375-.789062 49.007813-8.160157 86.359375-50.761719 86.359375-102.082032 0-.207031 0-.417968-.011719-.628906zm0 0" fill="#e2b061"/><path d="m98.5 363c-6.894531 0-12.5 5.605469-12.5 12.5v50c0 6.894531 5.605469 12.5 12.5 12.5h20c6.894531 0 12.5-5.605469 12.5-12.5v-50c0-6.894531-5.605469-12.5-12.5-12.5zm17.5 60h-15v-45h15zm0 0"/><path d="m158.5 438h20c6.894531 0 12.5-5.605469 12.5-12.5v-110c0-6.894531-5.605469-12.5-12.5-12.5h-20c-6.894531 0-12.5 5.605469-12.5 12.5v110c0 6.894531 5.605469 12.5 12.5 12.5zm2.5-120h15v105h-15zm0 0"/><path d="m218.5 438h20c6.894531 0 12.5-5.605469 12.5-12.5v-170c0-6.894531-5.605469-12.5-12.5-12.5h-20c-6.894531 0-12.5 5.605469-12.5 12.5v170c0 6.894531 5.605469 12.5 12.5 12.5zm2.5-180h15v165h-15zm0 0"/><path d="m57.5 393h-10c-4.144531 0-7.5 3.355469-7.5 7.5s3.355469 7.5 7.5 7.5h10c4.144531 0 7.5-3.355469 7.5-7.5s-3.355469-7.5-7.5-7.5zm0 0"/><path d="m57.5 363h-10c-4.144531 0-7.5 3.355469-7.5 7.5s3.355469 7.5 7.5 7.5h10c4.144531 0 7.5-3.355469 7.5-7.5s-3.355469-7.5-7.5-7.5zm0 0"/><path d="m57.5 333h-10c-4.144531 0-7.5 3.355469-7.5 7.5s3.355469 7.5 7.5 7.5h10c4.144531 0 7.5-3.355469 7.5-7.5s-3.355469-7.5-7.5-7.5zm0 0"/><path d="m57.5 303h-10c-4.144531 0-7.5 3.355469-7.5 7.5s3.355469 7.5 7.5 7.5h10c4.144531 0 7.5-3.355469 7.5-7.5s-3.355469-7.5-7.5-7.5zm0 0"/><path d="m57.5 273h-10c-4.144531 0-7.5 3.355469-7.5 7.5s3.355469 7.5 7.5 7.5h10c4.144531 0 7.5-3.355469 7.5-7.5s-3.355469-7.5-7.5-7.5zm0 0"/><path d="m57.5 243h-10c-4.144531 0-7.5 3.355469-7.5 7.5s3.355469 7.5 7.5 7.5h10c4.144531 0 7.5-3.355469 7.5-7.5s-3.355469-7.5-7.5-7.5zm0 0"/><path d="m57.5 423h-10c-4.144531 0-7.5 3.355469-7.5 7.5s3.355469 7.5 7.5 7.5h10c4.144531 0 7.5-3.355469 7.5-7.5s-3.355469-7.5-7.5-7.5zm0 0"/><path d="m243.5 153h-196c-4.144531 0-7.5 3.355469-7.5 7.5s3.355469 7.5 7.5 7.5h196c4.144531 0 7.5-3.355469 7.5-7.5s-3.355469-7.5-7.5-7.5zm0 0"/><path d="m207 190.5c0-4.144531-3.355469-7.5-7.5-7.5h-152c-4.144531 0-7.5 3.355469-7.5 7.5s3.355469 7.5 7.5 7.5h152c4.144531 0 7.5-3.355469 7.5-7.5zm0 0"/><path d="m161 220.5c0-4.144531-3.355469-7.5-7.5-7.5h-106c-4.144531 0-7.5 3.355469-7.5 7.5s3.355469 7.5 7.5 7.5h106c4.144531 0 7.5-3.355469 7.5-7.5zm0 0"/><path d="m488 294c0-61.207031-49.792969-111-111-111-20.332031 0-40.21875 5.546875-57.511719 16.039062 0 0-.003906 0-.003906.003907-31.742187 19.269531-51.34375 52.160156-53.308594 88.855469-.113281.515624-.175781 1.050781-.175781 1.601562v135c0 6.890625 5.605469 12.5 12.5 12.5h20c6.894531 0 12.5-5.609375 12.5-12.457031l.238281-41.179688c15.382813 11.351563 33.785157 18.828125 53.761719 20.984375v50.152344c0 6.894531-5.605469 12.5-12.5 12.5h-325c-6.894531 0-12.5-5.605469-12.5-12.5v-427c0-6.894531 5.605469-12.5 12.5-12.5h243.707031c.265625 0 .527344.023438.792969.039062v52.960938h-214.5c-9.648438 0-17.5 7.851562-17.5 17.5v35c0 9.648438 7.851562 17.5 17.5 17.5h265c9.648438 0 17.5-7.851562 17.5-17.5v-12.5h24.953125c.023437.3125.046875.625.046875.941406v46.652344c0 4.144531 3.355469 7.5 7.5 7.5s7.5-3.355469 7.5-7.5v-46.652344c0-7.339844-2.855469-14.238281-8.035156-19.429687l-81.296875-81.441407c-5.195313-5.203124-12.109375-8.070312-19.460938-8.070312h-243.707031c-15.164062 0-27.5 12.335938-27.5 27.5v457c0 15.164062 12.335938 27.5 27.5 27.5h51c4.144531 0 7.5-3.355469 7.5-7.5s-3.355469-7.5-7.5-7.5h-51c-6.894531 0-12.5-5.605469-12.5-12.5v-5.519531c3.753906 1.925781 8 3.019531 12.5 3.019531h325c4.5 0 8.746094-1.09375 12.5-3.019531v5.519531c0 6.894531-5.605469 12.5-12.5 12.5h-239c-4.144531 0-7.5 3.355469-7.5 7.5s3.355469 7.5 7.5 7.5h239c15.164062 0 27.5-12.335938 27.5-27.5v-79.542969c59.824219-1.59375 108-50.753906 108-110.957031zm-163-173.5c0 1.378906-1.121094 2.5-2.5 2.5h-265c-1.378906 0-2.5-1.121094-2.5-2.5v-35c0-1.378906 1.121094-2.5 2.5-2.5h214.617188c1.269531 13.996094 13.0625 25 27.382812 25h25.5zm29.25-27.5h-54.75c-6.894531 0-12.5-5.605469-12.5-12.5v-54.871094zm118.457031 193.5h-91.480469l-47.390624-78.261719c13.324218-6.710937 28.097656-10.238281 43.164062-10.238281 50.410156 0 91.871094 39.058594 95.707031 88.5zm-191.707031 135.5v-72.332031c4.316406 7.410156 9.460938 14.28125 15.3125 20.480469l-.296875 51.851562zm96-32c-52.933594 0-96-43.066406-96-96 0-31.324219 14.828125-59.953125 40.007812-77.988281l49.578126 81.871093c1.355468 2.246094 3.789062 3.617188 6.414062 3.617188h95.707031c-3.835937 49.441406-45.296875 88.5-95.707031 88.5zm0 0"/></svg>