<svg height="512pt" viewBox="0 0 512.001 512" width="512pt" xmlns="http://www.w3.org/2000/svg"><path d="m471.253906 393.730469h-430.507812c-10.308594 0-18.664063-8.359375-18.664063-18.667969v-326.164062h467.835938v326.164062c0 10.308594-8.355469 18.667969-18.664063 18.667969zm0 0" fill="#e7e7e7"/><path d="m471.253906 393.730469h-8.785156v-344.832031h27.449219v326.164062c0 10.308594-8.355469 18.667969-18.664063 18.667969zm0 0" fill="#cecece"/><path d="m499.515625 48.898438h-487.03125c-2.757813 0-4.992187-2.234376-4.992187-4.992188v-31.421875c0-2.757813 2.234374-4.992187 4.992187-4.992187h487.03125c2.757813 0 4.992187 2.234374 4.992187 4.992187v31.421875c0 2.757812-2.234374 4.992188-4.992187 4.992188zm0 0" fill="#00d3b4"/><path d="m499.515625 48.898438h-23.320313v-41.40625h23.320313c2.757813 0 4.992187 2.234374 4.992187 4.992187v31.421875c0 2.757812-2.234374 4.992188-4.992187 4.992188zm0 0" fill="#00b7a0"/><path d="m457.191406 150.359375c-5.152344-14.109375-14.4375-26.234375-26.382812-34.90625-3.101563-2.25-7.445313-1.511719-9.601563 1.65625l-30.3125 44.546875c-3.46875 5.101562 1.136719 11.804688 7.144531 10.390625l54.339844-12.78125c3.945313-.929687 6.207032-5.097656 4.8125-8.90625zm0 0" fill="#ff5757"/><path d="m452.378906 159.265625-6.957031 1.636719c-5.304687-15.320313-15.449219-28.378906-28.601563-37.347656l4.386719-6.445313c2.15625-3.167969 6.5-3.90625 9.597657-1.65625 11.949218 8.671875 21.234374 20.796875 26.390624 34.90625 1.390626 3.808594-.871093 7.976563-4.816406 8.90625zm0 0" fill="#f72c2c"/><path d="m435.003906 194.808594c1.175782 6.4375 1.769532 13.085937 1.710938 19.878906-.460938 56.984375-47.023438 103.566406-104.007813 104.050781-58.671875.5-106.332031-47.164062-105.832031-105.835937.480469-56.46875 46.253906-102.828125 102.714844-103.988282 17.597656-.359374 34.234375 3.613282 48.917968 10.925782 3.617188 1.800781 4.789063 6.410156 2.546876 9.777344l-45.347657 68.027343c-3.378906 5.070313 1.140625 11.671875 7.089844 10.359375l84.085937-18.566406c3.734376-.824219 7.429688 1.605469 8.121094 5.371094zm0 0" fill="#ffcd6b"/><path d="m436.722656 213.820312c0 57.945313-46.980468 104.917969-104.925781 104.917969-2.664063 0-5.3125-.097656-7.929687-.292969 54.242187-4.058593 96.988281-49.351562 96.988281-104.625 0-7.730468-.832031-15.257812-2.417969-22.515624l8.449219-1.867188c3.726562-.824219 7.425781 1.59375 8.113281 5.351562 1.128906 6.167969 1.722656 12.53125 1.722656 19.03125zm0 0" fill="#ffc143"/><path d="m422.5625 412.902344h-333.125c-2.757812 0-4.996094-2.234375-4.996094-4.992188v-28.359375c0-2.757812 2.238282-4.996093 4.996094-4.996093h333.125c2.757812 0 4.996094 2.238281 4.996094 4.996093v28.359375c0 2.757813-2.238282 4.992188-4.996094 4.992188zm0 0" fill="#00d3b4"/><path d="m422.5625 412.902344h-22.945312v-38.347656h22.945312c2.757812 0 4.996094 2.238281 4.996094 4.996093v28.359375c0 2.757813-2.238282 4.992188-4.996094 4.992188zm0 0" fill="#00b7a0"/><path d="m331.785156 326.230469c.328125 0 .660156 0 .988282-.003907 60.949218-.515624 110.941406-50.527343 111.433593-111.476562.058594-7.148438-.558593-14.3125-1.835937-21.292969-.703125-3.828125-2.875-7.125-6.125-9.285156-3.210938-2.132813-7.214844-2.878906-10.976563-2.046875l-82.328125 18.175781 44.347656-66.53125c2.273438-3.410156 2.972657-7.644531 1.917969-11.609375-1.050781-3.929687-3.730469-7.21875-7.359375-9.027344-16.128906-8.03125-34.257812-12.074218-52.410156-11.707031-3.890625.078125-7.8125.363281-11.660156.847657-4.105469.515624-7.015625 4.261718-6.5 8.367187s4.261718 7.015625 8.363281 6.496094c3.335937-.417969 6.734375-.664063 10.101563-.730469 15.65625-.332031 30.679687 2.953125 44.621093 9.742188l-44.886719 67.339843c-3.246093 4.867188-3.207031 11.132813.09375 15.960938 3.304688 4.824219 9.128907 7.132812 14.84375 5.871093l83.355469-18.40625c1.011719 5.8125 1.503907 11.765626 1.453125 17.710938-.425781 52.828125-43.75 96.171875-96.578125 96.621094-.285156 0-.570312.003906-.855469.003906-26.027343 0-50.464843-10.117188-68.886718-28.539062-18.625-18.625-28.757813-43.394532-28.535156-69.746094.152343-18.257813 5.464843-36.0625 15.355468-51.480469 9.648438-15.042969 23.183594-27.167969 39.132813-35.070313 3.710937-1.835937 5.226562-6.332031 3.390625-10.039062-1.835938-3.707031-6.332032-5.222656-10.039063-3.386719-18.386719 9.109375-33.980469 23.078125-45.09375 40.40625-11.417969 17.800781-17.550781 38.355469-17.726562 59.445313-.261719 30.398437 11.429687 58.976562 32.921875 80.464844 21.253906 21.257812 49.445312 32.929687 79.476562 32.925781zm0 0"/><path d="m384.738281 173.539062c2.710938 3.945313 7.082031 6.1875 11.703125 6.1875 1.09375 0 2.207032-.125 3.3125-.386718l54.339844-12.78125c3.96875-.933594 7.351562-3.527344 9.289062-7.117188 1.933594-3.585937 2.242188-7.832031.847657-11.648437-5.636719-15.433594-15.671875-28.710938-29.023438-38.402344-3.15625-2.292969-7.015625-3.1875-10.855469-2.515625-3.832031.664062-7.148437 2.804688-9.335937 6.019531l-30.3125 44.546875c-3.335937 4.898438-3.320313 11.214844.035156 16.097656zm42.246094-51.601562c10.417969 7.730469 18.308594 18.152344 22.886719 30.222656l-51.734375 12.167969zm0 0"/><path d="m62.828125 113.902344h118.355469c4.136718 0 7.488281-3.355469 7.488281-7.492188 0-4.136718-3.351563-7.492187-7.488281-7.492187h-118.355469c-4.140625 0-7.492187 3.355469-7.492187 7.492187 0 4.136719 3.351562 7.492188 7.492187 7.492188zm0 0"/><path d="m62.828125 178.132812h91.257813c4.136718 0 7.488281-3.351562 7.488281-7.492187 0-4.136719-3.351563-7.488281-7.488281-7.488281h-91.257813c-4.140625 0-7.492187 3.351562-7.492187 7.488281 0 4.140625 3.351562 7.492187 7.492187 7.492187zm0 0"/><path d="m62.828125 146.019531h69.664063c4.136718 0 7.492187-3.355469 7.492187-7.492187 0-4.136719-3.355469-7.492188-7.492187-7.492188h-69.664063c-4.140625 0-7.492187 3.355469-7.492187 7.492188 0 4.136718 3.351562 7.492187 7.492187 7.492187zm0 0"/><path d="m62.828125 233.808594h118.355469c4.136718 0 7.488281-3.355469 7.488281-7.492188 0-4.136718-3.351563-7.492187-7.488281-7.492187h-118.355469c-4.140625 0-7.492187 3.355469-7.492187 7.492187 0 4.136719 3.351562 7.492188 7.492187 7.492188zm0 0"/><path d="m62.828125 298.042969h91.257813c4.136718 0 7.488281-3.355469 7.488281-7.492188s-3.351563-7.492187-7.488281-7.492187h-91.257813c-4.140625 0-7.492187 3.355468-7.492187 7.492187s3.351562 7.492188 7.492187 7.492188zm0 0"/><path d="m62.828125 265.925781h69.664063c4.136718 0 7.492187-3.355469 7.492187-7.492187 0-4.136719-3.355469-7.492188-7.492187-7.492188h-69.664063c-4.140625 0-7.492187 3.355469-7.492187 7.492188 0 4.136718 3.351562 7.492187 7.492187 7.492187zm0 0"/><path d="m499.515625 0h-487.03125c-6.882813 0-12.484375 5.601562-12.484375 12.484375v31.421875c0 6.882812 5.601562 12.484375 12.484375 12.484375h2.105469v318.671875c0 14.425781 11.734375 26.160156 26.15625 26.160156h36.203125v6.6875c0 6.882813 5.601562 12.488282 12.488281 12.488282h48.203125c4.136719 0 7.488281-3.355469 7.488281-7.492188s-3.351562-7.492188-7.488281-7.492188h-45.707031v-23.367187h328.132812v23.367187h-247.71875c-4.136718 0-7.492187 3.355469-7.492187 7.492188s3.355469 7.492188 7.492187 7.492188h76.160156v44.015624c-9.558593 3.15625-16.476562 12.167969-16.476562 22.765626 0 13.21875 10.75 23.972656 23.96875 23.972656s23.972656-10.753906 23.972656-23.972656c0-10.601563-6.921875-19.609376-16.480468-22.765626v-44.015624h159.070312c6.886719 0 12.488281-5.601563 12.488281-12.488282v-6.6875h36.203125c14.421875 0 26.15625-11.734375 26.15625-26.160156v-318.671875h2.105469c6.882813 0 12.484375-5.601563 12.484375-12.484375v-31.421875c0-6.882813-5.601562-12.484375-12.484375-12.484375zm-234.527344 487.179688c0 4.957031-4.03125 8.988281-8.988281 8.988281s-8.988281-4.03125-8.988281-8.988281c0-4.953126 4.03125-8.988282 8.988281-8.988282s8.988281 4.035156 8.988281 8.988282zm217.4375-112.117188c0 6.164062-5.011719 11.175781-11.171875 11.175781h-36.207031v-6.6875c0-6.886719-5.597656-12.488281-12.484375-12.488281h-333.125c-6.886719 0-12.488281 5.601562-12.488281 12.488281v6.6875h-36.203125c-6.160156 0-11.175782-5.011719-11.175782-11.175781v-318.671875h452.855469zm14.59375-333.65625h-482.039062v-26.421875h482.039062zm0 0"/></svg>