<svg height="512pt" viewBox="0 -18 512 511" width="512pt" xmlns="http://www.w3.org/2000/svg"><path d="m269.117188 130.773438c0 67.804687-54.96875 122.773437-122.773438 122.773437s-122.773438-54.96875-122.773438-122.773437c0-67.804688 54.96875-122.773438 122.773438-122.773438s122.773438 54.96875 122.773438 122.773438zm0 0" fill="#abffdb"/><path d="m39.640625 161.914062c0 8.878907-7.195313 16.070313-16.070313 16.070313s-16.070312-7.191406-16.070312-16.070313c0-8.875 7.195312-16.066406 16.070312-16.066406s16.070313 7.191406 16.070313 16.066406zm0 0" fill="#ffc850"/><path d="m117.070312 84.488281c0 8.875-7.195312 16.070313-16.070312 16.070313s-16.070312-7.195313-16.070312-16.070313 7.195312-16.070312 16.070312-16.070312 16.070312 7.195312 16.070312 16.070312zm0 0" fill="#ffc850"/><path d="m199.1875 166.605469c0 8.875-7.195312 16.070312-16.070312 16.070312s-16.070313-7.195312-16.070313-16.070312 7.195313-16.070313 16.070313-16.070313 16.070312 7.195313 16.070312 16.070313zm0 0" fill="#ffc850"/><path d="m305.828125 59.964844c0 8.875-7.195313 16.070312-16.070313 16.070312s-16.070312-7.195312-16.070312-16.070312 7.195312-16.070313 16.070312-16.070313 16.070313 7.195313 16.070313 16.070313zm0 0" fill="#ffc850"/><path d="m376.632812 130.773438c0 8.875-7.195312 16.070312-16.070312 16.070312s-16.070312-7.195312-16.070312-16.070312 7.195312-16.070313 16.070312-16.070313 16.070312 7.195313 16.070312 16.070313zm0 0" fill="#ffc850"/><path d="m79.472656 344.328125h43.960938v123.660156h-43.960938zm0 0" fill="#ff8031"/><path d="m153.527344 344.328125h43.960937v123.660156h-43.960937zm0 0" fill="#ff8031"/><path d="m227.582031 307.746094h43.960938v160.242187h-43.960938zm0 0" fill="#ffc850"/><path d="m301.636719 253.21875h43.960937v214.769531h-43.960937zm0 0" fill="#abffdb"/><path d="m375.691406 196.820312h43.960938v271.167969h-43.960938zm0 0" fill="#abffdb"/><path d="m449.746094 130.773438h43.960937v337.214843h-43.960937zm0 0" fill="#abffdb"/><g fill="#474d54"><path d="m27.910156 185.078125c6.652344 14.507813 15.828125 27.546875 27.332032 38.804687 1.460937 1.429688 3.355468 2.140626 5.246093 2.140626 1.945313 0 3.890625-.753907 5.359375-2.253907 2.898438-2.960937 2.847656-7.710937-.113281-10.605469-10.472656-10.25-18.773437-22.160156-24.699219-35.4375 3.792969-4.183593 6.105469-9.730468 6.105469-15.808593 0-3.777344-.898437-7.347657-2.484375-10.515625l45.828125-45.828125c3.167969 1.585937 6.738281 2.484375 10.515625 2.484375 3.542969 0 6.90625-.792969 9.925781-2.199219l50.398438 50.398437c.140625.140626.289062.269532.4375.394532-1.417969 3.027344-2.214844 6.398437-2.214844 9.953125 0 13 10.574219 23.570312 23.570313 23.570312 12.996093 0 23.570312-10.570312 23.570312-23.570312 0-3.039063-.582031-5.941407-1.636719-8.613281l53.535157-53.53125c1.980468 8.453124 3.03125 17.261718 3.03125 26.3125 0 63.5625-51.710938 115.273437-115.273438 115.273437-20.207031 0-40.085938-5.304687-57.492188-15.339844-3.585937-2.066406-8.175781-.839843-10.242187 2.753907-2.070313 3.585937-.835937 8.171874 2.75 10.242187 19.679687 11.347656 42.152344 17.34375 64.984375 17.34375 71.832031 0 130.273438-58.441406 130.273438-130.273437 0-13.40625-2.039063-26.347657-5.816407-38.527344l10.347657-10.347656c2.667968 1.054687 5.570312 1.636718 8.609374 1.636718 4.066407 0 7.898438-1.035156 11.238282-2.855468l38.855468 38.855468c-1.820312 3.339844-2.855468 7.167969-2.855468 11.238282 0 12.996093 10.570312 23.570312 23.570312 23.570312 12.996094 0 23.570313-10.574219 23.570313-23.570312 0-13-10.574219-23.570313-23.570313-23.570313-3.46875 0-6.757812.757813-9.726562 2.105469l-39.617188-39.617188c1.347656-2.96875 2.105469-6.257812 2.105469-9.726562 0-12.996094-10.570313-23.570313-23.570313-23.570313-12.996093 0-23.570312 10.574219-23.570312 23.570313 0 4.480468 1.257812 8.671875 3.4375 12.242187l-4.683594 4.683594c-20.535156-45.023437-65.96875-76.390625-118.597656-76.390625-71.832031 0-130.273438 58.441406-130.273438 130.273438 0 2.898437.109376 5.808593.300782 8.703124-9.488282 3.050782-16.371094 11.953126-16.371094 22.4375 0 13 10.574219 23.570313 23.570312 23.570313 1.484376.003906 2.933594-.140625 4.339844-.40625zm332.652344-62.875c4.726562 0 8.570312 3.84375 8.570312 8.570313 0 4.722656-3.84375 8.570312-8.570312 8.570312-4.722656 0-8.570312-3.847656-8.570312-8.570312 0-4.726563 3.847656-8.570313 8.570312-8.570313zm-70.804688-70.808594c4.726563 0 8.570313 3.847657 8.570313 8.570313 0 4.726562-3.84375 8.570312-8.570313 8.570312-4.726562 0-8.570312-3.84375-8.570312-8.570312 0-4.722656 3.84375-8.570313 8.570312-8.570313zm-197.328124 33.09375c0-4.726562 3.84375-8.570312 8.570312-8.570312 4.722656 0 8.566406 3.84375 8.566406 8.570312 0 4.726563-3.84375 8.570313-8.566406 8.570313-4.726562 0-8.570312-3.84375-8.570312-8.570313zm90.6875 90.6875c-4.726563 0-8.570313-3.84375-8.570313-8.570312 0-4.722657 3.84375-8.570313 8.570313-8.570313 4.726562 0 8.570312 3.847656 8.570312 8.570313 0 4.726562-3.84375 8.570312-8.570312 8.570312zm-36.773438-159.675781c48.578125 0 90.230469 30.203125 107.171875 72.816406l-58.15625 58.15625c-3.570313-2.179687-7.761719-3.4375-12.242187-3.4375-3.992188 0-7.753907 1-11.054688 2.761719-.042969-.046875-.082031-.097656-.128906-.144531l-50.121094-50.121094c1.757812-3.296875 2.757812-7.054688 2.757812-11.042969 0-12.996093-10.574218-23.570312-23.570312-23.570312s-23.570312 10.574219-23.570312 23.570312c0 3.757813.890624 7.3125 2.460937 10.464844l-45.851563 45.851563c-.847656-.421876-1.726562-.792969-2.628906-1.113282-.222656-2.960937-.339844-5.949218-.339844-8.917968 0-63.5625 51.710938-115.273438 115.273438-115.273438zm-131.34375 146.414062c0-4.722656 3.84375-8.566406 8.570312-8.566406 4.726563 0 8.570313 3.84375 8.570313 8.566406 0 4.726563-3.84375 8.570313-8.570313 8.570313-4.726562 0-8.570312-3.84375-8.570312-8.570313zm0 0"/><path d="m504.5 475.488281c4.144531 0 7.5-3.355469 7.5-7.5s-3.355469-7.5-7.5-7.5h-3.296875v-164.183593c0-4.144532-3.355469-7.5-7.5-7.5-4.140625 0-7.5 3.355468-7.5 7.5v164.183593h-28.957031v-322.214843h28.957031v127.414062c0 4.140625 3.359375 7.5 7.5 7.5 4.144531 0 7.5-3.359375 7.5-7.5v-134.914062c0-4.144532-3.355469-7.5-7.5-7.5h-43.957031c-4.144532 0-7.5 3.355468-7.5 7.5v329.714843h-15.097656v-263.667969c0-4.140624-3.355469-7.5-7.5-7.5h-43.957032c-4.140625 0-7.5 3.359376-7.5 7.5v263.667969h-15.09375v-207.269531c0-4.144531-3.359375-7.5-7.5-7.5h-43.960937c-4.144531 0-7.5 3.355469-7.5 7.5v207.269531h-15.097657v-152.742187c0-4.144532-3.355468-7.5-7.5-7.5h-43.957031c-4.144531 0-7.5 3.355468-7.5 7.5v152.742187h-15.097656v-116.160156c0-4.144531-3.355469-7.5-7.5-7.5h-43.957031c-4.144532 0-7.5 3.355469-7.5 7.5v43.355469c0 4.144531 3.355468 7.5 7.5 7.5 4.144531 0 7.5-3.355469 7.5-7.5v-35.855469h28.957031v108.660156h-28.957031v-42.1875c0-4.140625-3.355469-7.5-7.5-7.5-4.144532 0-7.5 3.359375-7.5 7.5v42.1875h-15.097656v-116.160156c0-4.144531-3.355469-7.5-7.5-7.5h-43.953126c-4.144531 0-7.5 3.355469-7.5 7.5v116.160156h-57.46875c-4.140624 0-7.5 3.355469-7.5 7.5 0 4.140625 3.359376 7.5 7.5 7.5zm-121.308594-271.167969h28.957032v256.167969h-28.957032zm-74.054687 56.398438h28.960937v199.769531h-28.960937zm-74.054688 54.527344h28.960938v145.242187h-28.960938zm-148.105469 36.582031h28.957032v108.660156h-28.957032zm0 0"/><path d="m493.703125 29.414062c4.144531 0 7.5-3.355468 7.5-7.5v-1.648437c0-4.140625-3.355469-7.5-7.5-7.5-4.140625 0-7.5 3.359375-7.5 7.5v1.648437c0 4.144532 3.359375 7.5 7.5 7.5zm0 0"/><path d="m468.167969 29.414062c4.144531 0 7.5-3.355468 7.5-7.5v-1.648437c0-4.140625-3.355469-7.5-7.5-7.5-4.140625 0-7.5 3.359375-7.5 7.5v1.648437c0 4.144532 3.359375 7.5 7.5 7.5zm0 0"/><path d="m468.167969 59.332031h25.355469c4.140624 0 7.5-3.355469 7.5-7.5 0-4.140625-3.359376-7.5-7.5-7.5h-25.355469c-4.140625 0-7.5 3.359375-7.5 7.5 0 4.144531 3.359375 7.5 7.5 7.5zm0 0"/><path d="m425.914062 83.535156h67.605469c4.144531 0 7.5-3.355468 7.5-7.5 0-4.140625-3.355469-7.5-7.5-7.5h-67.605469c-4.140624 0-7.5 3.359375-7.5 7.5 0 4.144532 3.359376 7.5 7.5 7.5zm0 0"/></g></svg>