<?xml version="1.0" encoding="iso-8859-1"?>
<!-- Generator: Adobe Illustrator 19.0.0, SVG Export Plug-In . SVG Version: 6.00 Build 0)  -->
<svg xmlns="http://www.w3.org/2000/svg" xmlns:xlink="http://www.w3.org/1999/xlink" version="1.1" id="Layer_1" x="0px" y="0px" viewBox="0 0 512 512" style="enable-background:new 0 0 512 512;" xml:space="preserve" width="512" height="512">
<g>
	<ellipse style="fill:#F7E249;" cx="256" cy="256" rx="248.459" ry="248.5"/>
	<path style="fill:#F7C92B;" d="M412.23,62.785c34.56,42.689,55.276,97.049,55.276,156.256c0,137.243-111.239,248.5-248.46,248.5   c-59.197,0-113.549-20.719-156.23-55.285C108.367,468.52,177.977,504.5,256,504.5c137.22,0,248.46-111.257,248.46-248.5   C504.46,177.964,468.485,108.343,412.23,62.785z"/>
	<g>
		<path style="fill:#F7FFE3;" d="M386.641,190.9v130.2c0,12.324-9.98,22.306-22.293,22.306H147.652    c-12.312,0-22.293-9.982-22.293-22.306V190.9c0-6.564,2.834-12.465,7.347-16.556c3.95-3.569,9.196-5.75,14.945-5.75h216.697    c5.749,0,10.996,2.181,14.946,5.75c3.819,3.458,6.433,8.203,7.136,13.561C386.571,188.879,386.641,189.885,386.641,190.9z"/>
		<path style="fill:#F4ED9D;" d="M386.641,190.9v130.2c0,12.324-9.98,22.306-22.293,22.306h-43.571    c12.312,0,22.293-9.982,22.293-22.306V190.9c0-12.324-9.981-22.306-22.293-22.306h43.571c5.749,0,10.996,2.181,14.946,5.75    c3.819,3.458,6.433,8.203,7.136,13.561C386.571,188.879,386.641,189.885,386.641,190.9z"/>
		<path style="fill:#F4ED9D;" d="M386.43,187.904l-43.359,34.42l-79.764,63.331c-4.292,3.197-10.322,3.197-14.624,0l-123.324-92.021    V190.9c0-6.564,2.834-12.465,7.347-16.556c3.95-3.569,9.196-5.75,14.945-5.75h216.697c5.749,0,10.996,2.181,14.946,5.75    C383.113,177.801,385.727,182.546,386.43,187.904z"/>
		<path style="fill:#F7FFE3;" d="M379.294,174.343l-36.223,28.338l-80.115,62.667c-4.091,3.197-9.83,3.197-13.92,0l-116.329-91.005    c3.95-3.569,9.196-5.75,14.945-5.75h216.697C370.097,168.593,375.344,170.775,379.294,174.343z"/>
		<path style="fill:#F7F4B9;" d="M379.29,174.347c-3.953-3.573-9.191-5.75-14.939-5.751h-43.569    c12.312,0.003,22.293,9.986,22.293,22.301v11.779L379.29,174.347z"/>
	</g>
</g>
<g>
	<path d="M436.991,74.981C388.646,26.629,324.37,0,256,0c-45.053,0-89.357,11.872-128.122,34.333   c-3.584,2.076-4.806,6.665-2.729,10.249c2.076,3.584,6.667,4.807,10.249,2.729C171.88,26.173,213.584,15,256,15   c64.362,0,124.873,25.068,170.384,70.587c45.511,45.519,70.576,106.04,70.576,170.413c0,64.374-25.064,124.895-70.576,170.413   S320.362,497,256,497s-124.873-25.068-170.384-70.587S15.041,320.374,15.041,256c0-74.68,33.78-143.924,92.677-189.977   c3.263-2.551,3.84-7.265,1.289-10.528c-2.551-3.264-7.266-3.839-10.528-1.289c-29.972,23.436-54.76,53.77-71.684,87.723   C9.042,177.544,0.041,215.923,0.041,256c0,68.38,26.625,132.667,74.968,181.02C123.354,485.371,187.63,512,256,512   s132.646-26.629,180.991-74.98c48.344-48.353,74.968-112.64,74.968-181.02S485.335,123.333,436.991,74.981z"/>
	<path d="M147.654,350.904h138.809c4.142,0,7.5-3.357,7.5-7.5s-3.358-7.5-7.5-7.5H147.654c-8.16,0-14.798-6.64-14.798-14.802   V190.897c0-2.11,0.451-4.115,1.25-5.933l110.31,86.29c3.41,2.666,7.496,3.999,11.582,3.999s8.172-1.333,11.582-3.999   c0-0.001,0-0.001,0-0.001l110.313-86.291c0.8,1.819,1.251,3.824,1.251,5.935v130.206c0,8.162-6.638,14.802-14.798,14.802h-43.568   c-4.142,0-7.5,3.357-7.5,7.5s3.358,7.5,7.5,7.5h43.568c16.431,0,29.798-13.369,29.798-29.802V190.897   c0-6.927-2.382-13.304-6.361-18.37c-0.232-1.75-1.066-3.38-2.397-4.582c-4.889-4.417-11.192-6.849-17.748-6.849h-3.292H147.654   h-3.292c-6.558,0-12.862,2.434-17.751,6.853c-1.329,1.201-2.163,2.831-2.395,4.58c-3.978,5.066-6.359,11.442-6.359,18.369v130.206   C117.856,337.535,131.223,350.904,147.654,350.904z M364.346,176.096c0.17,0,0.334,0.02,0.503,0.025l-106.51,83.316   c-1.378,1.078-3.303,1.077-4.68,0.001l-106.511-83.317c0.17-0.006,0.335-0.026,0.506-0.026H364.346z"/>
</g>















</svg>
