<svg id="Capa_1" enable-background="new 0 0 512 512" height="512" viewBox="0 0 512 512" width="512" xmlns="http://www.w3.org/2000/svg"><path d="m7.5 181.248h117.179v260.622h-117.179z" fill="#fad59a" transform="matrix(-1 0 0 -1 132.179 623.118)"/><path d="m7.5 181.248h117.179v260.622h-18.183v-236.378c0-3.347-2.714-6.061-6.061-6.061h-92.935z" fill="#fbbe66"/><path d="m7.5 150.943h117.179v30.305h-117.179z" fill="#f59393" transform="matrix(-1 0 0 -1 132.179 332.191)"/><path d="m98.415 150.943h26.264v30.305h-26.264z" fill="#ec6161"/><path d="m7.5 441.87h117.179v62.63h-117.179z" fill="#f59393" transform="matrix(-1 0 0 -1 132.179 946.37)"/><path d="m88.313 464.094v-22.224h36.366v62.63h-50.508v-34.346c0-3.347 2.714-6.061 6.061-6.061h8.081z" fill="#ec6161"/><path d="m49.927 244.888c0-11.158 9.045-20.203 20.203-20.203s20.203 9.045 20.203 20.203v34.346h-40.406z" fill="#97e4f9"/><path d="m49.927 359.037c0-11.158 9.045-20.203 20.203-20.203s20.203 9.045 20.203 20.203v34.346h-40.406z" fill="#97e4f9"/><path d="m387.321 181.248h117.179v260.622h-117.179z" fill="#fad59a"/><path d="m504.5 181.248h-117.179v260.622h18.183v-236.378c0-3.347 2.714-6.061 6.061-6.061h92.935z" fill="#fbbe66"/><path d="m387.321 150.943h117.179v30.305h-117.179z" fill="#f59393"/><path d="m387.321 150.943h26.264v30.305h-26.264z" fill="#ec6161"/><path d="m484.297 150.943h20.203v30.305h-20.203z" fill="#ec6161"/><path d="m124.679 110.537h262.642v333.354h-262.642z" fill="#fad59a"/><path d="m124.679 423.687h262.642v18.183h-262.642z" fill="#fbbe66"/><path d="m296.406 348.935h-40.406-40.407v92.935h80.813z" fill="#daeaef"/><path d="m215.593 423.687h80.813v18.183h-80.813z" fill="#a8d0d5"/><g fill="#97e4f9"><path d="m191.35 173.167c0-11.158-9.045-20.203-20.203-20.203s-20.203 9.045-20.203 20.203v34.346h40.407v-34.346z"/><path d="m320.65 173.167c0-11.158 9.045-20.203 20.203-20.203s20.203 9.045 20.203 20.203v34.346h-40.406z"/><path d="m276.203 173.167c0-11.158-9.045-20.203-20.203-20.203s-20.203 9.045-20.203 20.203v34.346h40.406z"/><path d="m191.35 276.203c0-11.158-9.045-20.203-20.203-20.203s-20.203 9.045-20.203 20.203v34.346h40.407v-34.346z"/><path d="m320.65 276.203c0-11.158 9.045-20.203 20.203-20.203s20.203 9.045 20.203 20.203v34.346h-40.406z"/><path d="m276.203 276.203c0-11.158-9.045-20.203-20.203-20.203s-20.203 9.045-20.203 20.203v34.346h40.406z"/></g><path d="m124.679 110.537h262.642v18.183h-262.642z" fill="#fbbe66"/><path d="m108.516 80.232h294.967v30.305h-294.967z" fill="#f59393"/><path d="m377.22 80.232h26.264v30.305h-26.264z" fill="#ec6161"/><path d="m387.321 441.87h117.179v62.63h-117.179z" fill="#f59393"/><path d="m423.687 464.094v-22.224h-36.366v62.63h50.508v-34.346c0-3.347-2.714-6.061-6.061-6.061h-8.081z" fill="#ec6161"/><path d="m484.297 441.87h20.203v62.63h-20.203z" fill="#ec6161"/><path d="m108.516 441.87h294.967v32.325h-294.967z" fill="#786e79"/><path d="m108.516 460.053h294.967v14.142h-294.967z" fill="#554e57"/><path d="m94.374 474.195h323.252v30.305h-323.252z" fill="#786e79"/><path d="m94.374 490.358h323.252v14.142h-323.252z" fill="#554e57"/><path d="m462.073 244.888c0-11.158-9.045-20.203-20.203-20.203s-20.203 9.045-20.203 20.203v34.346h40.407v-34.346z" fill="#97e4f9"/><path d="m462.073 359.037c0-11.158-9.045-20.203-20.203-20.203s-20.203 9.045-20.203 20.203v34.346h40.407v-34.346z" fill="#97e4f9"/><path d="m322.671 43.866h-66.671v-36.366h66.671l-10.102 18.183z" fill="#f59393"/><path d="m90.333 286.734c4.142 0 7.5-3.358 7.5-7.5v-34.346c0-15.275-12.428-27.703-27.704-27.703-15.275 0-27.703 12.428-27.703 27.703v34.346c0 4.142 3.358 7.5 7.5 7.5zm-32.906-41.846c0-7.004 5.699-12.703 12.703-12.703 7.005 0 12.704 5.699 12.704 12.703v26.846h-25.407z"/><path d="m42.427 393.382c0 4.142 3.358 7.5 7.5 7.5h40.407c4.142 0 7.5-3.358 7.5-7.5v-34.346c0-15.275-12.428-27.703-27.704-27.703-15.275 0-27.703 12.428-27.703 27.703zm15-34.345c0-7.004 5.699-12.703 12.703-12.703 7.005 0 12.704 5.699 12.704 12.703v26.846h-25.407z"/><path d="m150.943 215.012h40.407c4.142 0 7.5-3.358 7.5-7.5v-34.346c0-15.275-12.428-27.703-27.703-27.703-15.276 0-27.704 12.428-27.704 27.703v34.346c0 4.142 3.358 7.5 7.5 7.5zm7.5-41.845c0-7.004 5.699-12.703 12.704-12.703 7.004 0 12.703 5.699 12.703 12.703v26.846h-25.407z"/><path d="m469.573 244.888c0-15.275-12.428-27.703-27.703-27.703-15.276 0-27.704 12.428-27.704 27.703v34.346c0 4.142 3.358 7.5 7.5 7.5h40.407c4.142 0 7.5-3.358 7.5-7.5zm-15 26.846h-25.407v-26.846c0-7.004 5.699-12.703 12.704-12.703 7.004 0 12.703 5.699 12.703 12.703z"/><path d="m320.65 215.012h40.407c4.142 0 7.5-3.358 7.5-7.5v-34.346c0-15.275-12.428-27.703-27.704-27.703-15.275 0-27.703 12.428-27.703 27.703v34.346c0 4.142 3.358 7.5 7.5 7.5zm7.5-41.845c0-7.004 5.699-12.703 12.703-12.703 7.005 0 12.704 5.699 12.704 12.703v26.846h-25.407z"/><path d="m235.797 215.012h40.406c4.142 0 7.5-3.358 7.5-7.5v-34.346c0-15.275-12.428-27.703-27.703-27.703s-27.703 12.428-27.703 27.703v34.346c0 4.142 3.358 7.5 7.5 7.5zm7.5-41.845c0-7.004 5.699-12.703 12.703-12.703s12.703 5.699 12.703 12.703v26.846h-25.406z"/><path d="m150.943 318.049h40.407c4.142 0 7.5-3.358 7.5-7.5v-34.346c0-15.275-12.428-27.703-27.703-27.703-15.276 0-27.704 12.428-27.704 27.703v34.346c0 4.142 3.358 7.5 7.5 7.5zm7.5-41.846c0-7.004 5.699-12.703 12.704-12.703 7.004 0 12.703 5.699 12.703 12.703v26.846h-25.407z"/><path d="m320.65 318.049h40.407c4.142 0 7.5-3.358 7.5-7.5v-34.346c0-15.275-12.428-27.703-27.704-27.703-15.275 0-27.703 12.428-27.703 27.703v34.346c0 4.142 3.358 7.5 7.5 7.5zm7.5-41.846c0-7.004 5.699-12.703 12.703-12.703 7.005 0 12.704 5.699 12.704 12.703v26.846h-25.407z"/><path d="m235.797 318.049h40.406c4.142 0 7.5-3.358 7.5-7.5v-34.346c0-15.275-12.428-27.703-27.703-27.703s-27.703 12.428-27.703 27.703v34.346c0 4.142 3.358 7.5 7.5 7.5zm7.5-41.846c0-7.004 5.699-12.703 12.703-12.703s12.703 5.699 12.703 12.703v26.846h-25.406z"/><path d="m441.87 331.333c-15.276 0-27.704 12.428-27.704 27.703v34.346c0 4.142 3.358 7.5 7.5 7.5h40.407c4.142 0 7.5-3.358 7.5-7.5v-34.346c0-15.275-12.427-27.703-27.703-27.703zm12.703 54.549h-25.407v-26.846c0-7.004 5.699-12.703 12.704-12.703 7.004 0 12.703 5.699 12.703 12.703z"/><path d="m504.5 143.443h-109.679v-25.406h8.663c4.142 0 7.5-3.358 7.5-7.5v-30.305c0-4.142-3.358-7.5-7.5-7.5h-51.609c-4.142 0-7.5 3.358-7.5 7.5s3.358 7.5 7.5 7.5h44.109v15.305h-279.968v-15.305h200.984c4.142 0 7.5-3.358 7.5-7.5s-3.358-7.5-7.5-7.5h-53.5v-21.366h59.171c2.657 0 5.116-1.406 6.464-3.697 1.348-2.29 1.383-5.123.092-7.446l-8.078-14.54 8.078-14.541c1.291-2.323 1.255-5.155-.092-7.446-1.348-2.29-3.807-3.696-6.464-3.696h-66.671c-4.142 0-7.5 3.358-7.5 7.5v65.232h-139.984c-4.142 0-7.5 3.358-7.5 7.5v30.305c0 4.142 3.358 7.5 7.5 7.5h8.663v25.406h-109.679c-4.142 0-7.5 3.358-7.5 7.5v30.305 66.984c0 4.142 3.358 7.5 7.5 7.5s7.5-3.358 7.5-7.5v-59.484h102.179v245.622h-102.179v-151.209c0-4.142-3.358-7.5-7.5-7.5s-7.5 3.358-7.5 7.5v221.339c0 4.142 3.358 7.5 7.5 7.5h86.874 323.252 86.874c4.142 0 7.5-3.358 7.5-7.5v-221.339c0-4.142-3.358-7.5-7.5-7.5s-7.5 3.358-7.5 7.5v151.209h-102.179v-245.622h102.179v59.484c0 4.142 3.358 7.5 7.5 7.5s7.5-3.358 7.5-7.5v-66.984-30.305c0-4.142-3.358-7.5-7.5-7.5zm-241-128.443h46.425l-3.912 7.041c-1.258 2.265-1.258 5.019 0 7.285l3.911 7.04h-46.424zm132.484 451.695h-279.968v-17.325h279.968zm-107.077-110.26v79.955h-25.407v-79.955zm-40.407 79.955h-25.407v-79.955h25.407zm131.321-318.353v318.353h-75.915v-87.455c0-4.142-3.358-7.5-7.5-7.5h-80.813c-4.142 0-7.5 3.358-7.5 7.5v87.455h-75.915v-318.353zm-364.821 55.711v-15.305h102.179v15.305zm0 275.622h86.016v17.325h-6.642c-4.142 0-7.5 3.358-7.5 7.5v22.805h-71.874zm86.874 32.325h308.252v15.305h-308.252zm395.126 15.305h-71.874v-22.805c0-4.142-3.358-7.5-7.5-7.5h-6.642v-17.325h86.016zm-102.179-338.557h102.179v15.305h-102.179z"/></svg>