<svg id="Layer_1" enable-background="new 0 0 128 128" height="512" viewBox="0 0 128 128" width="512" xmlns="http://www.w3.org/2000/svg"><path d="m118.789 35.168c0-2.451-.955-4.755-2.688-6.489-3.578-3.578-9.4-3.578-12.979 0l-8.757 8.757c-1.173-.436-2.236-.941-2.929-1.633-1.062-1.062-1.686-2.994-2.29-4.862-.838-2.596-1.706-5.279-3.886-6.541-2.143-1.24-4.877-.66-7.522-.1-1.943.412-3.951.838-5.441.439-1.401-.375-2.813-1.652-4.31-3.004-2.046-1.851-4.163-3.764-6.747-3.764s-4.701 1.914-6.747 3.764c-1.496 1.353-2.908 2.63-4.31 3.004-1.491.398-3.499-.028-5.44-.439-2.643-.561-5.376-1.14-7.522.1-2.18 1.262-3.047 3.945-3.886 6.541-.604 1.868-1.228 3.8-2.29 4.862s-2.994 1.687-4.862 2.29c-2.595.839-5.279 1.706-6.541 3.886-1.24 2.144-.66 4.878-.1 7.522.412 1.942.837 3.951.439 5.441-.375 1.402-1.652 2.814-3.004 4.31-1.851 2.046-3.764 4.163-3.764 6.747s1.914 4.701 3.764 6.747c1.353 1.496 2.63 2.908 3.004 4.31.398 1.49-.027 3.498-.439 5.44-.561 2.644-1.141 5.378.1 7.522 1.262 2.18 3.945 3.047 6.541 3.886 1.868.604 3.8 1.228 4.862 2.29s1.687 2.994 2.29 4.862c.839 2.595 1.706 5.279 3.886 6.541 2.144 1.241 4.878.661 7.522.1 1.941-.411 3.95-.839 5.441-.439 1.402.375 2.814 1.652 4.31 3.004 2.046 1.851 4.163 3.764 6.747 3.764s4.701-1.914 6.748-3.765c1.495-1.352 2.907-2.629 4.309-3.004 1.493-.4 3.5.028 5.441.439 2.644.562 5.377 1.141 7.522-.1 2.18-1.262 3.047-3.945 3.886-6.54.604-1.868 1.228-3.8 2.29-4.862s2.994-1.687 4.862-2.29c2.595-.839 5.278-1.706 6.54-3.886 1.24-2.144.661-4.878.101-7.522-.412-1.942-.838-3.951-.439-5.442.375-1.401 1.652-2.814 3.005-4.31 1.851-2.046 3.764-4.162 3.764-6.747 0-2.584-1.913-4.7-3.764-6.747-1.277-1.412-2.478-2.751-2.924-4.076l13.52-13.52c1.732-1.73 2.687-4.034 2.687-6.486z" fill="#e6e7e8"/><path d="m97.533 72.799c.979-3.664 6.735-6.827 6.735-10.799s-5.756-7.135-6.735-10.799c-1.013-3.79 2.36-9.401.44-12.72-1.948-3.367-8.512-3.238-11.244-5.97s-2.604-9.296-5.97-11.244c-3.319-1.92-8.93 1.453-12.721.44-3.664-.979-6.827-6.735-10.799-6.735s-7.135 5.756-10.799 6.735c-3.79 1.013-9.401-2.36-12.72-.44-3.367 1.948-3.238 8.512-5.97 11.244s-9.296 2.604-11.244 5.97c-1.92 3.319 1.453 8.93.44 12.721-.979 3.664-6.735 6.827-6.735 10.799s5.756 7.135 6.735 10.799c1.013 3.79-2.36 9.401-.44 12.72 1.948 3.367 8.512 3.238 11.244 5.97s2.604 9.296 5.97 11.244c3.319 1.92 8.93-1.453 12.721-.44 3.664.979 6.827 6.735 10.799 6.735s7.135-5.756 10.799-6.735c3.79-1.013 9.401 2.36 12.72.44 3.367-1.948 3.238-8.512 5.97-11.244s9.296-2.604 11.244-5.97c1.92-3.319-1.453-8.93-.44-12.721z" fill="#6dc9f7"/><circle cx="57.24" cy="62" fill="#d4fbff" r="30"/><path d="m111.393 25.386c-3.193-3.193-8.371-3.193-11.564 0l-40.051 40.051c-1.179 1.179-3.09 1.179-4.269 0l-17.478-17.479c-3.193-3.193-8.371-3.193-11.564 0-3.193 3.193-3.193 8.371 0 11.564l25.395 25.395c3.193 3.193 8.371 3.193 11.564 0l47.967-47.967c3.193-3.193 3.193-8.37 0-11.564z" fill="#fa759e"/><path d="m111.393 33.95-47.967 47.967c-3.193 3.193-8.371 3.193-11.564 0l-25.395-25.395c-1.213-1.213-1.963-2.713-2.254-4.282-.475 2.56.274 5.302 2.254 7.282l25.395 25.395c3.193 3.193 8.371 3.193 11.564 0l47.967-47.967c1.98-1.98 2.73-4.722 2.254-7.282-.291 1.569-1.041 3.069-2.254 4.282z" fill="#fff"/><g fill="#3a2c60"><path d="m77.539 46.263-2.937 2.936c-.391.39-.391 1.023 0 1.414.195.195.451.293.707.293s.512-.098.707-.293l2.937-2.936c.391-.39.391-1.023 0-1.414s-1.023-.391-1.414 0z"/><path d="m114.788 31.168c0-2.451-.955-4.756-2.688-6.489-3.578-3.578-9.399-3.579-12.978 0l-8.757 8.757c-1.173-.435-2.236-.94-2.928-1.633-1.062-1.062-1.687-2.995-2.29-4.863-.839-2.595-1.706-5.278-3.886-6.54-2.145-1.24-4.877-.661-7.523-.1-1.94.412-3.946.841-5.44.439-1.401-.375-2.814-1.652-4.31-3.004-2.046-1.851-4.163-3.764-6.747-3.764s-4.701 1.914-6.747 3.764c-1.496 1.353-2.908 2.63-4.31 3.004-1.491.399-3.499-.028-5.44-.439-2.643-.561-5.377-1.14-7.522.1-2.18 1.262-3.047 3.945-3.886 6.54-.604 1.868-1.228 3.8-2.29 4.862s-2.994 1.687-4.862 2.291c-2.595.838-5.279 1.706-6.541 3.886-1.24 2.144-.66 4.878-.1 7.522.412 1.942.837 3.951.439 5.441-.375 1.402-1.652 2.814-3.004 4.31-1.853 2.047-3.767 4.163-3.767 6.748 0 2.584 1.914 4.701 3.764 6.747 1.353 1.496 2.63 2.908 3.004 4.31.398 1.49-.027 3.499-.439 5.441-.561 2.644-1.141 5.378.1 7.522 1.262 2.18 3.945 3.047 6.541 3.886 1.868.604 3.8 1.228 4.862 2.29s1.687 2.994 2.29 4.862c.839 2.595 1.706 5.279 3.886 6.541 2.145 1.241 4.878.661 7.522.1 1.943-.412 3.95-.84 5.441-.439 1.402.375 2.814 1.652 4.31 3.004 2.046 1.851 4.163 3.764 6.747 3.764s4.701-1.914 6.747-3.764c1.496-1.353 2.909-2.63 4.31-3.004 1.489-.4 3.498.027 5.44.439 2.644.561 5.379 1.141 7.522-.1 2.181-1.262 3.048-3.945 3.887-6.541.604-1.868 1.228-3.799 2.29-4.862 1.062-1.062 2.993-1.686 4.861-2.29 2.596-.839 5.279-1.706 6.54-3.886 1.241-2.144.661-4.879.101-7.523-.411-1.942-.837-3.95-.439-5.439.375-1.402 1.652-2.814 3.005-4.311 1.851-2.046 3.765-4.162 3.765-6.747 0-2.584-1.914-4.701-3.765-6.747-1.277-1.412-2.478-2.75-2.924-4.076l13.52-13.52c1.734-1.733 2.689-4.037 2.689-6.489zm-52.069 53.042c-1.355 1.355-3.158 2.102-5.075 2.102s-3.72-.747-5.075-2.102l-25.395-25.395c-1.355-1.355-2.102-3.158-2.102-5.075s.747-3.72 2.102-5.075 3.158-2.102 5.075-2.102 3.72.747 5.075 2.102l17.479 17.479c1.566 1.567 4.116 1.566 5.683 0l12.083-12.084c.391-.391.391-1.023 0-1.414s-1.023-.391-1.414 0l-12.084 12.084c-.787.787-2.067.787-2.854 0l-17.479-17.479c-1.733-1.733-4.038-2.688-6.489-2.688s-4.755.955-6.489 2.688-2.688 4.038-2.688 6.489.955 4.755 2.688 6.489l25.395 25.395c1.733 1.733 4.038 2.688 6.489 2.688s4.755-.955 6.489-2.688l32.932-32.932c.693 1.38 1.832 2.659 2.956 3.902 1.597 1.766 3.248 3.591 3.248 5.406s-1.651 3.64-3.248 5.406c-1.452 1.606-2.954 3.267-3.453 5.135-.522 1.953-.046 4.199.415 6.371.504 2.38.98 4.628.125 6.107-.877 1.515-3.086 2.229-5.425 2.985-2.093.676-4.258 1.376-5.66 2.779-1.403 1.403-2.103 3.567-2.779 5.661-.756 2.338-1.47 4.547-2.985 5.424-1.478.855-3.727.379-6.105-.125-2.172-.46-4.419-.936-6.371-.415-1.869.5-3.53 2.001-5.136 3.454-1.766 1.597-3.591 3.248-5.406 3.248s-3.64-1.651-5.406-3.248c-1.606-1.452-3.267-2.954-5.135-3.454-.606-.162-1.241-.228-1.893-.228-1.448 0-2.981.325-4.479.643-2.38.504-4.628.98-6.106.125-1.516-.876-2.229-3.085-2.985-5.424-.677-2.094-1.376-4.259-2.779-5.662s-3.567-2.103-5.661-2.779c-2.339-.756-4.548-1.47-5.424-2.985-.855-1.479-.379-3.726.125-6.105.46-2.172.937-4.419.415-6.372-.5-1.868-2.001-3.529-3.454-5.135-1.597-1.765-3.248-3.591-3.248-5.405s1.651-3.64 3.248-5.405c1.452-1.606 2.954-3.267 3.454-5.135.522-1.953.045-4.2-.415-6.372-.504-2.379-.981-4.627-.125-6.106.876-1.515 3.085-2.229 5.424-2.985 2.094-.676 4.259-1.376 5.662-2.779s2.103-3.568 2.779-5.661c.756-2.338 1.469-4.547 2.985-5.424 1.478-.857 3.726-.38 6.106.125 2.172.46 4.419.937 6.372.415 1.868-.5 3.529-2.001 5.135-3.454 1.765-1.597 3.591-3.248 5.405-3.248s3.64 1.651 5.406 3.248c1.606 1.452 3.267 2.954 5.136 3.454 1.952.521 4.199.045 6.371-.415 2.38-.505 4.629-.982 6.106-.125 1.515.876 2.229 3.085 2.984 5.424.677 2.094 1.376 4.258 2.779 5.662.756.756 1.735 1.305 2.803 1.758l-8.159 8.159c-.391.391-.391 1.023 0 1.414s1.023.391 1.414 0l18.456-18.456c1.355-1.355 3.158-2.102 5.075-2.102 1.916 0 3.719.747 5.074 2.102s2.103 3.158 2.103 5.075-.747 3.719-2.103 5.075z"/></g></svg>