<svg height="511pt" viewBox="-1 1 511 511.99896" width="511pt" xmlns="http://www.w3.org/2000/svg"><path d="m487.335938 74.394531-51.777344-52.085937c-9.851563-9.90625-23.417969-15.144532-37.328125-14.402344l-93.144531 4.957031c-12.105469.652344-23.554688 5.777344-32.128907 14.402344l-250.253906 251.734375c-19.175781 19.292969-19.175781 50.574219.003906 69.867188l139.996094 140.824218c19.175781 19.292969 50.273437 19.296875 69.453125 0l250.25-251.734375c8.574219-8.625 13.675781-20.136719 14.320312-32.320312l4.929688-93.695313c.734375-13.992187-4.46875-27.636718-14.320312-37.546875zm-58.886719 46.753907c-10.855469 10.921874-28.457031 10.921874-39.316407.003906-10.855468-10.921875-10.855468-28.628906 0-39.550782 10.859376-10.921874 28.457032-10.921874 39.316407 0 10.851562 10.921876 10.851562 28.625 0 39.546876zm0 0" fill="#ffc843"/><path d="m487.335938 74.394531-51.777344-52.085937c-9.851563-9.90625-23.417969-15.144532-37.328125-14.402344l-19.558594 1.042969c9.148437 1.980469 17.640625 6.574219 24.386719 13.359375l51.78125 52.085937c9.851562 9.910157 15.054687 23.554688 14.316406 37.546875l-4.929688 93.699219c-.429687 8.167969-2.875 16.035156-7.023437 22.9375l17.3125 17.3125 7.886719-7.933594c8.578125-8.621093 13.679687-20.136719 14.320312-32.320312l4.933594-93.695313c.734375-13.992187-4.46875-27.636718-14.320312-37.546875zm0 0" fill="#fff"/><g fill="#76ffd9"><path d="m264.449219 35.824219-241.746094 243.175781c-19.175781 19.292969-19.175781 50.574219.003906 69.867188l139.996094 140.824218c19.175781 19.292969 50.273437 19.296875 69.453125 0l242.363281-243.800781zm0 0"/><path d="m474.519531 245.890625-242.363281 243.800781zm0 0"/><path d="m186.621094 502.945312c-2.035156-.460937-4.050782-1.050781-6.027344-1.777343 1.976562.726562 3.992188 1.316406 6.027344 1.777343zm0 0"/><path d="m193.453125 503.988281c-2.113281-.167969-4.21875-.480469-6.296875-.925781 2.082031.445312 4.183594.753906 6.296875.925781zm0 0"/><path d="m196.972656 504.152344c-1.054687-.011719-2.109375-.058594-3.164062-.136719 1.054687.078125 2.109375.125 3.164062.136719zm0 0"/><path d="m179.988281 500.941406c-.839843-.324218-1.675781-.667968-2.5-1.035156.824219.367188 1.660157.710938 2.5 1.035156zm0 0"/><path d="m200.347656 504.066406c-1.117187.066406-2.238281.097656-3.355468.085938 1.117187.011718 2.238281-.019532 3.355468-.085938zm0 0"/><path d="m177.03125 499.707031c-.941406-.429687-1.867188-.894531-2.785156-1.390625.917968.496094 1.84375.960938 2.785156 1.390625zm0 0"/><path d="m210.339844 502.417969c-2.160156.589843-4.347656 1.03125-6.554688 1.320312 2.207032-.289062 4.394532-.730469 6.554688-1.320312zm0 0"/><path d="m203.679688 503.75c-1.082032.140625-2.171876.242188-3.257813.308594 1.085937-.066406 2.171875-.167969 3.257813-.308594zm0 0"/><path d="m170.816406 496.28125c-.871094-.566406-1.730468-1.160156-2.574218-1.789062.84375.628906 1.703124 1.222656 2.574218 1.789062zm0 0"/><path d="m167.847656 494.183594c-.722656-.546875-1.429687-1.121094-2.125-1.710938.695313.589844 1.402344 1.164063 2.125 1.710938zm0 0"/><path d="m165.070312 491.90625c-.804687-.710938-1.601562-1.441406-2.367187-2.214844.765625.773438 1.5625 1.503906 2.367187 2.214844zm0 0"/><path d="m173.675781 498c-.75-.417969-1.488281-.855469-2.222656-1.316406.734375.457031 1.472656.898437 2.222656 1.316406zm0 0"/></g><path d="m174.246094 498.316406c-.191406-.101562-.378906-.210937-.570313-.320312.191407.109375.378907.21875.570313.320312zm0 0" fill="#e1eaf8"/><path d="m200.417969 504.0625c-.023438 0-.046875.003906-.070313.003906.023438 0 .046875-.003906.070313-.003906zm0 0" fill="#e1eaf8"/><path d="m165.722656 492.472656c-.21875-.1875-.4375-.375-.652344-.566406.214844.191406.433594.378906.652344.566406zm0 0" fill="#e1eaf8"/><path d="m210.46875 502.386719c-.042969.007812-.085938.019531-.128906.03125.042968-.011719.085937-.023438.128906-.03125zm0 0" fill="#e1eaf8"/><path d="m203.785156 503.738281c-.035156.003907-.070312.007813-.105468.011719.035156-.003906.070312-.007812.105468-.011719zm0 0" fill="#e1eaf8"/><path d="m180.59375 501.167969c-.203125-.074219-.402344-.152344-.605469-.226563.203125.074219.402344.152344.605469.226563zm0 0" fill="#e1eaf8"/><path d="m171.453125 496.683594c-.210937-.132813-.425781-.265625-.636719-.402344.210938.136719.425782.269531.636719.402344zm0 0" fill="#e1eaf8"/><path d="m177.488281 499.90625c-.152343-.066406-.304687-.128906-.457031-.199219.152344.070313.304688.132813.457031.199219zm0 0" fill="#e1eaf8"/><path d="m193.808594 504.015625c-.117188-.007813-.238282-.015625-.355469-.027344.117187.011719.238281.019531.355469.027344zm0 0" fill="#e1eaf8"/><path d="m187.15625 503.0625c-.179688-.039062-.355469-.078125-.535156-.117188.179687.039063.355468.078126.535156.117188zm0 0" fill="#e1eaf8"/><path d="m168.242188 494.492188c-.136719-.097657-.261719-.207032-.394532-.308594.132813.101562.257813.210937.394532.308594zm0 0" fill="#e1eaf8"/><path d="m280.746094 52.121094 24.707031-24.855469c8.574219-8.625 20.023437-13.75 32.128906-14.402344h-32.496093c-12.105469.652344-23.554688 5.777344-32.128907 14.402344l-8.507812 8.558594zm0 0" fill="#ffb400"/><path d="m195.199219 489.691406-139.996094-140.824218c-19.179687-19.292969-19.179687-50.574219-.003906-69.867188l225.546875-226.878906-16.296875-16.296875-241.746094 243.175781c-19.175781 19.292969-19.175781 50.574219.003906 69.867188l139.996094 140.824218c.765625.773438 1.5625 1.503906 2.367187 2.214844.214844.191406.433594.378906.652344.566406.695313.589844 1.402344 1.164063 2.121094 1.710938.132812.101562.261719.210937.394531.308594.84375.628906 1.707031 1.222656 2.578125 1.789062.210938.136719.425782.269531.636719.402344.730469.460937 1.472656.898437 2.222656 1.316406.191407.105469.378907.214844.570313.316406.917968.496094 1.84375.960938 2.785156 1.390625.148438.070313.300781.132813.453125.199219.828125.367188 1.660156.710938 2.503906 1.035156.199219.074219.398438.152344.601563.226563 1.980468.726562 3.992187 1.316406 6.03125 1.777343.179687.039063.355468.078126.535156.117188 2.078125.445312 4.183594.753906 6.296875.925781.117187.011719.238281.015625.355469.027344 1.054687.078125 2.109375.125 3.160156.136719h.019531c1.121094.007812 2.242188-.019532 3.359375-.085938.023438-.003906.046875-.003906.070313-.007812 1.089843-.066406 2.175781-.167969 3.261719-.308594.035156-.003906.070312-.007812.105468-.011719 2.207032-.289062 4.394532-.730469 6.554688-1.320312.042968-.011719.085937-.023438.125-.03125 1.078125-.300781 2.148437-.632813 3.207031-1.003907-6.746094-2.375-13.082031-6.265624-18.472656-11.691406zm0 0" fill="#5de0bf"/><path d="m380.265625 224.605469c7.753906 7.753906 7.753906 20.324219 0 28.078125l-167.71875 167.71875c-7.753906 7.753906-20.324219 7.753906-28.078125 0l-93.835938-93.835938c-7.75-7.753906-7.75-20.324218 0-28.074218l167.71875-167.722657c7.753907-7.75 20.324219-7.75 28.078126 0zm0 0" fill="#fff"/><path d="m123.628906 326.566406c-7.753906-7.753906-7.753906-20.324218 0-28.074218l165.257813-165.261719-2.457031-2.460938c-7.753907-7.75-20.324219-7.75-28.078126 0l-167.714843 167.722657c-7.753907 7.75-7.753907 20.320312 0 28.074218l93.832031 93.835938c7.753906 7.753906 20.324219 7.753906 28.078125 0l2.457031-2.457032zm0 0" fill="#e1eaf8"/><path d="m147.445312 316.042969c-2.675781 0-5.351562-1.023438-7.390624-3.0625-4.078126-4.078125-4.078126-10.695313 0-14.777344l117.746093-117.746094c4.082031-4.078125 10.695313-4.078125 14.777344 0 4.082031 4.082031 4.082031 10.699219 0 14.777344l-117.746094 117.746094c-2.039062 2.039062-4.714843 3.0625-7.386719 3.0625zm0 0" fill="#c1c8d2"/><path d="m176.445312 345.042969c-2.675781 0-5.347656-1.023438-7.390624-3.0625-4.078126-4.078125-4.078126-10.695313 0-14.777344l117.746093-117.746094c4.082031-4.078125 10.695313-4.078125 14.777344 0 4.082031 4.082031 4.082031 10.699219 0 14.777344l-117.746094 117.746094c-2.039062 2.039062-4.714843 3.0625-7.386719 3.0625zm0 0" fill="#c1c8d2"/><path d="m205.445312 374.042969c-2.675781 0-5.347656-1.023438-7.390624-3.0625-4.078126-4.078125-4.078126-10.695313 0-14.777344l117.746093-117.746094c4.082031-4.078125 10.695313-4.078125 14.777344 0 4.082031 4.082031 4.082031 10.699219 0 14.777344l-117.746094 117.746094c-2.039062 2.039062-4.714843 3.0625-7.386719 3.0625zm0 0" fill="#c1c8d2"/><path d="m492.882812 68.871094-51.78125-52.089844c-10.761718-10.820312-25.066406-16.78125-40.285156-16.78125-1 0-2.015625.0273438-3.015625.0820312l-93.148437 4.9570308c-14.078125.757813-27.316406 6.6875-37.269532 16.699219l-250.25 251.734375c-6.929687 6.972656-11.695312 15.3125-14.292968 24.164063-1.5625 5.308593-2.339844 10.800781-2.339844 16.296875 0 14.652344 5.542969 29.304687 16.632812 40.460937l139.996094 140.824219c10.757813 10.820312 25.066406 16.777344 40.285156 16.78125h.003907c15.21875 0 29.527343-5.960938 40.28125-16.78125l247.871093-249.34375 2.375-2.390625c9.953126-10.007813 15.84375-23.304687 16.589844-37.433594l4.929688-93.699219c.851562-16.175781-5.195313-32.023437-16.582032-43.480468zm-295.464843 427.457031c-2.753907 0-5.46875-.273437-8.113281-.800781-7.925782-1.582032-15.214844-5.480469-21.058594-11.359375l-139.996094-140.824219c-16.121094-16.214844-16.121094-42.601562 0-58.820312l236.203125-237.601563 198.984375 198.984375-236.851562 238.261719c-7.792969 7.839843-18.152344 12.160156-29.167969 12.160156zm296.398437-384.800781-4.929687 93.695312c-.546875 10.277344-4.824219 19.9375-12.054688 27.210938l-2.34375 2.359375-198.984375-198.984375 2.996094-3.019532c7.210938-7.253906 16.796875-11.550781 26.988281-12.097656l93.144531-4.960937c.730469-.039063 1.457032-.058594 2.183594-.058594 11.011719 0 21.371094 4.320313 29.167969 12.164063l51.78125 52.085937c8.277344 8.324219 12.667969 19.84375 12.050781 31.605469zm0 0" fill="#434c54"/></svg>