<?xml version="1.0" encoding="iso-8859-1"?>
<!-- Generator: Adobe Illustrator 19.0.0, SVG Export Plug-In . SVG Version: 6.00 Build 0)  -->
<svg version="1.1" id="Capa_1" xmlns="http://www.w3.org/2000/svg" xmlns:xlink="http://www.w3.org/1999/xlink" x="0px" y="0px"
	 viewBox="0 0 512 512" style="enable-background:new 0 0 512 512;" xml:space="preserve">
<path style="fill:#5AAAE7;" d="M484.178,269.345c0,86.338-46.533,161.798-115.896,202.666
	c-34.942,20.604-75.69,32.416-119.185,32.416c-129.833,0-235.082-105.248-235.082-235.082c0-30.721,5.896-60.069,16.614-86.97
	c24.625-61.823,74.738-110.723,137.363-133.744c25.277-9.295,52.599-14.368,81.104-14.368h0.14
	C379.01,34.343,484.178,139.561,484.178,269.345z"/>
<path style="fill:#78B9EB;" d="M484.178,269.345c0,86.338-46.533,161.798-115.896,202.666
	c-25.277,9.295-52.589,14.368-81.084,14.368c-129.833,0-235.082-105.248-235.082-235.082c0-30.721,5.896-60.069,16.614-86.97
	c19.391-48.689,54.594-89.356,99.263-115.696c25.277-9.295,52.599-14.368,81.104-14.368h0.14
	C379.01,34.343,484.178,139.561,484.178,269.345z"/>
<g>
	<path style="fill:#3D9AE2;" d="M327.433,233.309c-6.447,7.841-7.349,19.582-6.728,37.208c2.216,63.859-10.538,113.49-35.935,139.78
		c-11.942,12.363-26.59,19.171-41.239,19.171h-0.01c-21.497,0-39.966-14.198-48.197-37.028l-0.301-0.822l-0.231-0.842
		c-21.587-77.766-44.177-132.28-67.148-162.028c-18.098-23.442-32.346-26.6-43.906-26.6c-6.457,0-13.055,1.063-20.043,2.186
		c-2.336,0.381-4.702,0.752-7.099,1.093c-5.103,0.732-10.327,1.293-15.671,1.293c-5.976,0-11.39-0.702-16.524-2.146l-1.253-0.351
		c2.146-7.44,4.642-14.729,7.48-21.848c24.625-61.823,74.738-110.723,137.363-133.744c25.277-9.295,52.599-14.368,81.104-14.368
		h0.14c0.963,0,1.925,0.01,2.888,0.02c0.612,0.01,1.213,0.02,1.825,0.03c12.032,0.241,23.853,1.394,35.374,3.379
		c-13.987,7.841-33.519,18.79-33.519,18.79c-29.588,11.611-48.167,27.132-58.545,38.121c-0.742,0.792-1.454,1.564-2.146,2.326
		c-2.045,2.296,0.02,5.835,3.028,5.194c11.651-2.497,23.121-3.75,34.321-3.75c23.532,0,45.721,5.675,64.17,16.403
		c17.737,10.317,31.333,24.715,39.334,41.64C348.459,182.886,345.27,211.632,327.433,233.309z"/>
	<path style="fill:#3D9AE2;" d="M403.966,446.202c-11.029,9.666-22.971,18.318-35.684,25.808
		c-34.942,20.604-75.69,32.416-119.185,32.416c-2.637,0-5.274-0.04-7.891-0.13l2.025-6.918
		c9.686-33.077,21.848-58.445,36.156-75.399c18.99-22.52,39.003-27.242,52.449-27.242
		C363.97,394.736,389.698,420.615,403.966,446.202z"/>
	<path style="fill:#3D9AE2;" d="M484.178,269.345c0,4.051-0.1,8.071-0.301,12.062c-2.467,0.752-4.933,1.384-7.4,1.905
		c-5.454,1.143-10.929,1.725-16.363,1.725c-27.854,0-53.602-14.99-72.522-42.182c-31.042-44.648-37.94-112.227-17.165-168.175
		l2.035-5.485C439.5,110.605,484.178,184.761,484.178,269.345z"/>
</g>
<path style="fill:#6DC82A;" d="M385.607,460.751c-25.297,18.068-54.334,31.253-85.727,38.151c-11.23,2.477-22.75,4.151-34.521,4.953
	c24.244-82.789,58.635-95.452,86.098-80.804C365.364,430.461,377.486,444.879,385.607,460.751z"/>
<path style="fill:#5EAC24;" d="M483.847,256.912v0.01c-72.221,30.41-125.773-82.719-91.803-174.221
	c7.189,5.515,14.047,11.43,20.544,17.737c39.274,38.011,65.323,89.597,70.587,147.189
	C483.466,250.705,483.687,253.804,483.847,256.912z"/>
<path style="fill:#6DC82A;" d="M483.175,247.627c-48.749-5.284-81.736-77.024-70.587-147.189
	C451.862,138.448,477.911,190.035,483.175,247.627z"/>
<path style="fill:#C70024;" d="M494.826,73.166c-3.419,9.054-9.264,16.494-16.514,21.848l0.08,0.03
	c-2.444,2.035-48.071,40.018-54.103,45.039c-4.241,3.555-10.753,1.104-11.611-4.382L401.9,66.137l0.08,0.03
	c-2.055-9.575-1.253-19.893,3.018-29.658c9.976-22.84,36.146-34.441,59.778-26.54c0.371,0.12,0.732,0.251,1.093,0.391
	C491.417,19.554,504.391,47.859,494.826,73.166z"/>
<path style="fill:#FF0C38;" d="M494.826,73.166c-3.419,9.054-9.264,16.494-16.514,21.848l0.08,0.03l-41.6,34.632l-9.535-61.533
	l0.08,0.03c-2.055-9.575-1.253-19.893,3.018-29.658c6.587-15.07,20.213-25.247,35.514-28.154
	C491.417,19.554,504.391,47.859,494.826,73.166z"/>
<path style="fill:#EEBF00;" d="M471.905,62.578c-2.126,5.615-6.186,9.936-11.139,12.483c-5.675,2.928-12.513,3.529-18.95,1.093
	c-12.052-4.552-18.128-18.028-13.576-30.08c4.562-12.052,18.028-18.138,30.08-13.576c0.852,0.321,1.664,0.682,2.457,1.093
	C471.183,38.935,476.137,51.368,471.905,62.578z"/>
<path style="fill:#FFDA44;" d="M471.905,62.578c-2.126,5.615-6.186,9.936-11.139,12.483c-10.418-5.334-15.371-17.777-11.139-28.987
	c2.126-5.625,6.196-9.946,11.149-12.483C471.183,38.935,476.137,51.368,471.905,62.578z"/>
<path style="fill:#6DC82A;" d="M309.626,218.661c-12.142,14.749-12.643,33.569-11.972,52.669
	c4.833,138.887-64.28,158.63-80.643,113.28C140.74,109.803,73.833,194.497,30.628,182.375
	C65.2,95.595,149.984,34.263,249.096,34.263h0.14c-0.682,0.291-1.313,0.541-1.875,0.762
	c-89.246,35.003-113.26,113.039-67.679,96.405C284.239,93.259,346.764,173.521,309.626,218.661z"/>
<g>
	<path style="fill:#5EAC24;" d="M238.398,357.207c-58.72-211.57-111.89-210.055-152.966-203.688
		c-5.604,0.868-9.799-4.989-7.195-10.027c20.388-39.446,51.622-72.376,89.754-94.862c-36.005,13.235-67.859,35.037-93.127,62.918
		c0.007-0.01,0.014-0.021,0.021-0.032c-18.765,20.682-33.912,44.886-44.257,70.857c43.199,12.123,110.109-72.579,186.383,202.235
		c10.859,30.09,44.929,31.523,65.212-11.47C264.677,385.181,245.938,378.102,238.398,357.207z"/>
	<path style="fill:#5EAC24;" d="M265.359,503.855c35.625-2.428,71.007-13.044,102.902-31.834
		c-15.547,5.713-31.87,9.825-48.764,12.145c-6.957,0.956-12.23-6.14-9.376-12.557c12.746-28.65,27.12-43.36,41.336-48.558
		C307.562,399.637,279.384,455.966,265.359,503.855z"/>
</g>
<path d="M501.865,75.823c11.226-29.723-4.39-62.858-34.702-72.983c-27.222-9.104-57.562,4.362-69.053,30.661
	c-8.647,19.761-2.85,34.696-2.276,42.613c-40.617-30.982-89.707-48.207-141.474-49.31C120.917,23.525,6.495,131.179,6.495,269.345
	c0,64.801,25.237,125.722,71.058,171.544c94.801,94.811,248.267,94.821,343.087,0c84.874-84.874,93.427-216.292,27.242-310.662
	C484.691,99.183,494.846,94.363,501.865,75.823z M275.883,495.322c8.936-27.12,27.488-70.008,56.027-70.008
	c17.839,0,33.887,16.473,43.772,33.038C345.868,478.386,311.896,491.068,275.883,495.322z M475.986,251.838
	c-32.245,10.458-57.963-11.901-72.482-42.412c-1.785-3.75-6.277-5.344-10.027-3.559s-5.344,6.267-3.559,10.016
	c17.135,36.015,48.338,61.483,86.709,51.426c0.658,74.089-34.283,140.181-88.707,182.213
	c-13.203-21.658-34.672-41.457-60.133-39.055c-13.978,1.319-26.871,9.3-38.32,23.72c-11.428,14.392-21.44,35.393-29.793,62.465
	c-130.078,5.983-238.14-98.175-238.14-227.307c0-27.132,4.783-53.171,13.536-77.324c42.392,7.299,92.364-52.368,155.922,127.748
	c1.093,3.088,4.001,5.023,7.099,5.023c5.164,0,8.823-5.124,7.089-10.027C140.089,130.317,79.529,180.069,40.887,177.572
	c31.243-70.607,96.666-122.173,176.266-133.533c-16.774,9.836-28.906,20.213-37.018,28.385c-2.918,2.948-2.908,7.71,0.04,10.638
	c2.948,2.918,7.71,2.908,10.638-0.04c11.3-11.39,31.192-27.483,61.763-39.474c1.143-0.441,2.487-1.003,3.93-1.634
	c47.215,1.524,90.83,17.486,126.585,43.625c-10.919,32.767-11.661,68.631-3.71,100.626c0.852,3.419,3.92,5.705,7.299,5.705
	c4.893,0,8.482-4.602,7.299-9.345c-6.908-27.783-6.618-58.655,1.755-87.04c1.213,1.023,2.406,2.055,3.589,3.098l5.926,38.261
	c0.812,5.214,4.372,9.605,9.305,11.47c10.56,3.984,16.7-4.849,21.647-8.362C459.412,173.421,472.968,212.163,475.986,251.838z
	 M472.758,89.95c-2.305,1.919-45.044,37.501-52.75,43.916c-11.5-74.784-10.619-69.021-10.678-69.283
	c-1.815-8.422-0.922-17.095,2.557-25.066c8.412-19.231,30.591-29.077,50.504-22.419c17.758,5.936,28.084,22.342,28.084,38.883
	C490.474,78.202,473.616,88.986,472.758,89.95z"/>
<path d="M460.98,25.461L460.98,25.461c-7.709-2.915-16.092-2.652-23.604,0.74c-24.826,11.207-24.01,47.238,1.786,56.988
	c3.549,1.342,7.24,2.009,10.924,2.009c4.319,0,8.628-0.919,12.682-2.749C487.947,71.082,486.43,35.079,460.98,25.461z
	 M464.868,59.916c-3.09,8.178-12.208,12.295-20.388,9.204c-16.356-6.182-11.899-30.621,5.586-30.621c1.888,0,3.78,0.343,5.599,1.03
	l0,0C463.84,42.619,467.959,51.738,464.868,59.916z"/>
<path d="M304.05,138.629c-26.576-22.298-70.897-32.304-124.441-12.755c-4.165,1.521-6.902,1.84-8.465,1.84
	c-2.768,0-3.982-0.414-3.982-4.373c0-4.604,2.309-11.252,6.337-18.237c2.073-3.599,0.838-8.197-2.759-10.271
	c-3.598-2.072-8.196-0.838-10.271,2.759c-5.459,9.472-8.346,18.377-8.346,25.749c0,14.663,11.593,24.347,32.644,16.66
	c76.333-27.866,130.63,11.086,130.63,50.478c0,30.608-24.957,19.821-22.753,82.62c1.136,32.628-1.531,74.173-16.959,102.806
	c-8.263,15.336-19.348,24.491-29.653,24.491c-8.427,0-15.469-6.037-19.349-16.576c-3.923-14.125-7.933-27.683-11.917-40.302
	c-1.25-3.959-5.474-6.156-9.435-4.907c-3.96,1.25-6.157,5.474-4.907,9.435c3.957,12.536,7.943,26.022,11.845,40.082
	c0.05,0.182,0.108,0.363,0.172,0.541c6.048,16.76,18.605,26.766,33.589,26.766c16.166,0,31.8-11.808,42.893-32.397
	c12.427-23.063,18.995-56.461,18.995-96.584c0-21.523-3.6-44.969,10.017-61.51c8.177-9.938,12.499-21.856,12.499-34.466
	C330.437,171.598,320.82,152.7,304.05,138.629z"/>
<g>
</g>
<g>
</g>
<g>
</g>
<g>
</g>
<g>
</g>
<g>
</g>
<g>
</g>
<g>
</g>
<g>
</g>
<g>
</g>
<g>
</g>
<g>
</g>
<g>
</g>
<g>
</g>
<g>
</g>
</svg>
