<svg height="512pt" viewBox="-30 0 512 512" width="512pt" xmlns="http://www.w3.org/2000/svg"><g fill-rule="evenodd"><path d="m374.445312 10h-260.425781l-104.019531 104.019531v387.980469h364.445312zm0 0" fill="#b5f2ff"/><path d="m114.019531 10v104.019531h-104.019531zm0 0" fill="#00d8ff"/><path d="m290.59375 408c83.71875 0 152-68.28125 152-152s-68.28125-152-152-152-152 68.28125-152 152 68.28125 152 152 152zm0 0" fill="#ffc666"/></g><path d="m290.59375 323.007812c-5.523438 0-10-4.480468-10-10v-6.417968c-.203125-20.519532 9.734375-36.144532 27.992188-43.902344 17.402343-7.398438 28.648437-24.292969 28.648437-43.050781 0-25.71875-20.921875-46.644531-46.640625-46.644531s-46.644531 20.925781-46.644531 46.644531c0 5.523437-4.476563 10-10 10-5.523438 0-10-4.476563-10-10 0-36.746094 29.894531-66.644531 66.644531-66.644531 36.746094 0 66.640625 29.898437 66.640625 66.644531 0 26.792969-16.023437 50.917969-40.824219 61.457031-10.769531 4.574219-15.941406 12.882812-15.816406 25.394531v6.519531c0 5.519532-4.476562 10-10 10zm0 0"/><path d="m290.59375 363.007812c5.507812 0 10-4.492187 10-10 0-5.511718-4.492188-10-10-10s-10 4.488282-10 10c0 5.507813 4.492188 10 10 10zm0 0" fill-rule="evenodd"/><path d="m452.59375 256c0-54.375-26.929688-102.578125-68.148438-131.976562v-114.023438c0-5.523438-4.476562-10-10-10h-260.425781c-.113281 0-.222656.0117188-.335937.015625-.113282.0039062-.226563.0117188-.339844.0195312-.421875.0273438-.84375.0742188-1.257812.1562498-.007813 0-.015626 0-.023438 0-.421875.085938-.832031.207032-1.238281.34375-.105469.035156-.210938.074219-.3125.113282-.382813.140624-.757813.300781-1.121094.492187-.023437.011719-.046875.019531-.070313.03125-.382812.203125-.746093.4375-1.097656.691406-.089844.0625-.179687.128907-.269531.199219-.347656.265625-.691406.550781-1.003906.867188l-104.011719 104.007812c-.238281.238281-.460938.488281-.675781.75-.074219.089844-.140625.1875-.210938.28125-.058593.078125-.113281.148438-.167969.226562-.066406.09375-.140624.183594-.203124.277344-.085938.128906-.15625.261719-.238282.390625-.089844.148438-.179687.296875-.261718.449219-.074219.136719-.136719.277344-.203126.414062-.074218.15625-.152343.3125-.21875.472657-.046874.117187-.085937.234375-.128906.355469-.027344.074218-.054687.144531-.078125.21875-.042969.113281-.085937.230468-.121093.347656-.042969.136718-.074219.277344-.109376.417968-.042968.171876-.089843.34375-.125.519532-.003906.007812-.003906.011718-.003906.019531-.03125.15625-.050781.3125-.074218.472656-.023438.160157-.0507818.320313-.0664068.484375-.0117187.109375-.0117187.214844-.0195312.320313-.0078125.109375-.0117188.214843-.015625.324219-.0039062.078124-.0078125.15625-.01171875.234374 0 .035157-.00390625.070313-.00390625.105469v277.980469c0 5.519531 4.476562 10 10 10s10-4.480469 10-10v-267.980469h94.019531c5.523438 0 10-4.480469 10-10v-94.019531h240.425781v91.835938c-22.160156-11.398438-47.265624-17.835938-73.851562-17.835938-89.328125 0-162 72.671875-162 162s72.671875 162 162 162c26.585938 0 51.691406-6.4375 73.851562-17.835938v91.835938h-344.445312v-20.003906c0-5.519532-4.476562-10-10-10s-10 4.480468-10 10v30.003906c0 5.523438 4.476562 10 10 10h364.445312c5.523438 0 10-4.476562 10-10v-114.023438c41.21875-29.398437 68.148438-77.601562 68.148438-131.976562zm-418.453125-151.980469 69.878906-69.875v69.875zm256.453125 293.980469c-78.300781 0-142-63.699219-142-142s63.699219-142 142-142 142 63.699219 142 142-63.699219 142-142 142zm0 0"/><path d="m10 441.996094c5.507812 0 10-4.492188 10-10 0-5.507813-4.492188-10-10-10s-10 4.492187-10 10c0 5.507812 4.492188 10 10 10zm0 0" fill-rule="evenodd"/></svg>