<?xml version="1.0" encoding="iso-8859-1"?>
<!-- Generator: Adobe Illustrator 19.0.0, SVG Export Plug-In . SVG Version: 6.00 Build 0)  -->
<svg version="1.1" id="Capa_1" xmlns="http://www.w3.org/2000/svg" xmlns:xlink="http://www.w3.org/1999/xlink" x="0px" y="0px"
	 viewBox="0 0 512 512" style="enable-background:new 0 0 512 512;" xml:space="preserve">
<rect x="111.258" y="23.132" transform="matrix(-0.9964 -0.0851 0.0851 -0.9964 570.2321 520.9073)" style="fill:#D5D9DE;" width="369.92" height="450.337"/>
<rect x="38.98" y="28.863" transform="matrix(-0.9922 0.1247 -0.1247 -0.9922 477.8005 478.1449)" style="fill:#EAECEE;" width="369.912" height="450.327"/>
<rect x="68.635" y="54.137" style="fill:#F4F6F7;" width="369.91" height="450.325"/>
<path style="fill:#55697A;" d="M237.51,134.552c-57.736,0-104.54,46.805-104.54,104.54s46.804,104.54,104.54,104.54
	s104.54-46.805,104.54-104.54H237.51L237.51,134.552L237.51,134.552z"/>
<path style="fill:#FD8E61;" d="M269.676,102.386v104.54h104.54C374.215,149.191,327.412,102.386,269.676,102.386z"/>
<path d="M505.418,34.829c-1.288-1.529-3.131-2.484-5.123-2.654l-111.428-9.517L386.847,6.6c-0.52-4.131-4.299-7.059-8.42-6.54
	L275.06,13.056c-0.407-0.106-0.824-0.186-1.257-0.223L131.726,0.697c-4.091-0.36-7.805,2.786-8.153,6.869l-2.118,24.8L11.406,46.202
	c-4.072,0.512-7.051,4.345-6.54,8.42L61.04,501.43c0.255,2.038-0.182,3.996,0.651,5.967c1.168,2.761,3.948,4.604,6.947,4.604h369.91
	c4.164,0,7.539-3.374,7.539-7.539v-9.819l14.601,1.247c4.091,0.355,7.805-2.784,8.153-6.869L507.163,40.33
	C507.334,38.337,506.707,36.359,505.418,34.829z M376.68,46.598H129.129l243.699-30.637L376.68,46.598z M137.955,16.362l65.98,5.635
	l-67.182,8.447L137.955,16.362z M20.768,60.221l40.331-5.07v325.872L20.768,60.221z M454.459,480.225l-8.373-0.715V259.195
	c0-4.165-3.374-7.539-7.539-7.539c-4.165,0-7.539,3.374-7.539,7.539v237.727H76.177V61.676h354.832v162.338
	c0,4.165,3.374,7.539,7.539,7.539c4.164,0,7.539-3.374,7.539-7.539V54.137c0-4.164-3.374-7.539-7.539-7.539h-46.671l-1.087-8.643
	l100.709,8.602L454.459,480.225z"/>
<path d="M398.34,86.806h-40.208c-2.521,0-4.875,1.259-6.272,3.357l-17.064,25.596c-18.367-13.157-40.854-20.912-65.12-20.912
	c-4.164,0-7.539,3.374-7.539,7.539v104.54c0,4.165,3.374,7.539,7.539,7.539h104.54c4.164,0,7.539-3.374,7.539-7.539
	c0-32.097-13.566-61.081-35.26-81.533l15.673-23.509h36.173c4.165,0,7.539-3.374,7.539-7.539S402.504,86.806,398.34,86.806z
	 M366.387,199.387h-89.172v-89.172c18.283,1.412,35.15,7.932,49.206,18.106l-6.727,10.091c-2.101,3.15-1.485,7.513,1.417,9.95
	c3.398,2.854,8.669,2.101,11.127-1.586l5.757-8.636C354.025,154.063,364.543,175.527,366.387,199.387z"/>
<path d="M398.34,336.092h-68.195l-12.016-19.225c19.465-20.17,31.459-47.598,31.459-77.775c0-4.165-3.374-7.539-7.539-7.539h-97.001
	v-97.001c0-4.165-3.375-7.539-7.539-7.539c-61.8,0-112.079,50.279-112.079,112.079S175.709,351.17,237.51,351.17
	c26.123,0,50.185-8.984,69.264-24.023l12.8,20.48c1.378,2.204,3.794,3.543,6.393,3.543h72.374c4.165,0,7.539-3.374,7.539-7.539
	C405.879,339.467,402.504,336.092,398.34,336.092z M237.51,336.092c-53.486,0-97.001-43.515-97.001-97.001
	c0-50.95,39.485-92.851,89.462-96.711v96.711c0,4.165,3.375,7.539,7.539,7.539h96.711c-1.684,21.801-10.608,41.604-24.362,57.004
	l-17.706-28.331c-2.206-3.533-6.859-4.605-10.389-2.398c-3.531,2.206-4.605,6.858-2.398,10.389l19.364,30.982
	C282.02,327.907,260.703,336.092,237.51,336.092z"/>
<path d="M108.845,391.378h64.332c4.163,0,7.539-3.374,7.539-7.539s-3.375-7.539-7.539-7.539h-64.332
	c-4.163,0-7.539,3.374-7.539,7.539S104.682,391.378,108.845,391.378z"/>
<path d="M269.676,376.3h-64.332c-4.163,0-7.539,3.374-7.539,7.539s3.375,7.539,7.539,7.539h64.332c4.165,0,7.539-3.374,7.539-7.539
	S273.84,376.3,269.676,376.3z"/>
<path d="M108.845,431.585h104.54c4.163,0,7.539-3.374,7.539-7.539c0-4.164-3.375-7.539-7.539-7.539h-104.54
	c-4.163,0-7.539,3.374-7.539,7.539C101.306,428.211,104.682,431.585,108.845,431.585z"/>
<path d="M269.676,416.508h-24.125c-4.163,0-7.539,3.374-7.539,7.539c0,4.165,3.375,7.539,7.539,7.539h24.125
	c4.165,0,7.539-3.374,7.539-7.539C277.214,419.882,273.84,416.508,269.676,416.508z"/>
<path d="M141.011,456.715h-32.166c-4.163,0-7.539,3.374-7.539,7.539c0,4.164,3.375,7.539,7.539,7.539h32.166
	c4.163,0,7.539-3.374,7.539-7.539C148.55,460.089,145.175,456.715,141.011,456.715z"/>
<path d="M269.676,456.715h-96.498c-4.163,0-7.539,3.374-7.539,7.539c0,4.164,3.375,7.539,7.539,7.539h96.498
	c4.165,0,7.539-3.374,7.539-7.539C277.214,460.089,273.84,456.715,269.676,456.715z"/>
<g>
</g>
<g>
</g>
<g>
</g>
<g>
</g>
<g>
</g>
<g>
</g>
<g>
</g>
<g>
</g>
<g>
</g>
<g>
</g>
<g>
</g>
<g>
</g>
<g>
</g>
<g>
</g>
<g>
</g>
</svg>
