<svg height="512pt" viewBox="-37 0 512 512" width="512pt" xmlns="http://www.w3.org/2000/svg"><path d="m59.238281 464.363281c-5.746093 0-10.449219-4.699219-10.449219-10.445312v-406.28125h-30.503906c-5.746094 0-10.449218 4.699219-10.449218 10.445312v435.632813c0 5.746094 4.703124 10.449218 10.449218 10.449218h359.542969c5.746094 0 10.449219-4.703124 10.449219-10.449218v-29.351563zm0 0" fill="#76ffd9"/><path d="m59.238281 7.835938c-5.746093 0-10.449219 4.703124-10.449219 10.449218v435.632813c0 5.746093 4.703126 10.445312 10.449219 10.445312h359.542969c5.746094 0 10.449219-4.699219 10.449219-10.445312v-323.914063c0-5.75-3.324219-13.777344-7.390625-17.839844l-96.9375-96.9375c-4.0625-4.066406-12.089844-7.390624-17.835938-7.390624zm0 0" fill="#fff"/><path d="m88.867188 453.917969v-435.632813c0-5.746094 4.703124-10.449218 10.449218-10.449218h-40.078125c-5.746093 0-10.449219 4.703124-10.449219 10.449218v435.632813c0 5.746093 4.703126 10.445312 10.449219 10.445312h40.078125c-5.746094 0-10.449218-4.699219-10.449218-10.445312zm0 0" fill="#e1eaf8"/><path d="m317.511719 109.105469c0 5.746093 4.703125 10.449219 10.449219 10.449219h90.820312c5.746094 0 7.125-3.328126 3.058594-7.390626l-96.9375-96.9375c-4.0625-4.066406-7.386719-2.6875-7.386719 3.058594v90.820313zm0 0" fill="#ffc843"/><path d="m351.234375 109.105469v-67.546875l-26.332031-26.332032c-4.066406-4.066406-7.390625-2.6875-7.390625 3.058594v90.820313c0 5.746093 4.703125 10.449219 10.449219 10.449219h33.722656c-5.746094 0-10.449219-4.703126-10.449219-10.449219zm0 0" fill="#ffb400"/><path d="m335.628906 314.515625c0 2.875-2.351562 5.226563-5.222656 5.226563h-58.382812c-2.875 0-5.222657-2.351563-5.222657-5.226563v-136.503906c0-2.871094 2.347657-5.222657 5.222657-5.222657h58.382812c2.871094 0 5.222656 2.351563 5.222656 5.222657zm0 0" fill="#ffc843"/><path d="m295.855469 314.515625v-136.503906c0-2.871094 2.351562-5.222657 5.222656-5.222657h-29.054687c-2.875 0-5.226563 2.351563-5.226563 5.222657v136.503906c0 2.875 2.351563 5.226563 5.226563 5.226563h29.054687c-2.871094 0-5.222656-2.351563-5.222656-5.226563zm0 0" fill="#ffa816"/><path d="m427.382812 106.621094-96.9375-96.9375c-5.523437-5.519532-15.574218-9.683594-23.382812-9.683594h-247.824219c-10.082031 0-18.285156 8.203125-18.285156 18.285156v21.511719h-22.667969c-10.082031 0-18.285156 8.203125-18.285156 18.285156v435.632813c0 10.082031 8.203125 18.285156 18.285156 18.285156h95.757813c4.328125 0 7.835937-3.507812 7.835937-7.835938 0-4.328124-3.507812-7.835937-7.835937-7.835937h-95.757813c-1.414062 0-2.613281-1.199219-2.613281-2.613281v-435.632813c0-1.414062 1.199219-2.609375 2.613281-2.609375h22.664063v398.445313c0 10.082031 8.203125 18.285156 18.285156 18.285156h242.890625c4.328125 0 7.835938-3.507813 7.835938-7.839844 0-4.328125-3.507813-7.835937-7.835938-7.835937h-242.886719c-1.417969 0-2.613281-1.195313-2.613281-2.609375v-435.632813c0-1.414062 1.195312-2.613281 2.613281-2.613281h247.824219c.773438 0 1.644531.113281 2.5625.308594l.101562 93.195312c.011719 10.078125 8.210938 18.265625 18.292969 18.265625h.019531l24.253907-.042968c4.328125-.007813 7.832031-3.519532 7.824219-7.847657-.007813-4.324219-3.511719-7.824219-7.835938-7.824219-.003906 0-.007812 0-.015625 0l-24.25.039063c-1.417969 0-2.613281-1.191406-2.613281-2.609375l-.097656-82.445312 84.957031 84.957031-12.015625.015625c-4.328125.003906-7.832032 3.519531-7.828125 7.847656.007812 4.324219 3.515625 7.824219 7.839843 7.824219h.007813l22.796875-.019531c.210938.957031.332031 1.867187.332031 2.667968v323.914063c0 1.414062-1.195312 2.609375-2.613281 2.609375h-75.90625c-4.328125 0-7.835938 3.507812-7.835938 7.835937 0 4.332031 3.507813 7.839844 7.835938 7.839844h37.566406v21.511719c0 1.414062-1.195312 2.613281-2.613281 2.613281h-224.078125c-4.328125 0-7.835938 3.507813-7.835938 7.835937 0 4.328126 3.507813 7.835938 7.835938 7.835938h224.078125c10.082031 0 18.285156-8.203125 18.285156-18.285156v-21.511719h22.667969c10.082031 0 18.285156-8.203125 18.285156-18.285156v-323.914063c0-7.808594-4.164062-17.859375-9.683594-23.382812zm0 0" fill="#434c54"/><g fill="#adb5bd"><path d="m137.097656 127.390625h108.695313c4.332031 0 7.839843-3.507813 7.839843-7.835937 0-4.332032-3.507812-7.839844-7.839843-7.839844h-108.695313c-4.328125 0-7.835937 3.507812-7.835937 7.839844 0 4.328124 3.507812 7.835937 7.835937 7.835937zm0 0"/><path d="m137.097656 327.875h96.0625c4.332032 0 7.839844-3.507812 7.839844-7.835938 0-4.328124-3.507812-7.835937-7.839844-7.835937h-96.0625c-4.332031 0-7.839844 3.507813-7.839844 7.835937.003907 4.328126 3.511719 7.835938 7.839844 7.835938zm0 0"/><path d="m137.097656 378h198.53125c4.328125 0 7.835938-3.507812 7.835938-7.839844 0-4.328125-3.507813-7.835937-7.835938-7.835937h-198.53125c-4.328125 0-7.835937 3.507812-7.835937 7.835937s3.507812 7.839844 7.835937 7.839844zm0 0"/><path d="m137.097656 229.710938h96.0625c4.332032 0 7.839844-3.507813 7.839844-7.839844 0-4.328125-3.507812-7.835938-7.839844-7.835938h-96.0625c-4.332031 0-7.839844 3.507813-7.839844 7.835938.003907 4.328125 3.511719 7.839844 7.839844 7.839844zm0 0"/><path d="m137.097656 279.832031h96.0625c4.332032 0 7.839844-3.507812 7.839844-7.835937 0-4.332032-3.507812-7.839844-7.839844-7.839844h-96.0625c-4.332031 0-7.839844 3.507812-7.839844 7.839844.003907 4.324218 3.511719 7.835937 7.839844 7.835937zm0 0"/><path d="m137.097656 180.625h96.0625c4.332032 0 7.839844-3.507812 7.839844-7.835938 0-4.328124-3.507812-7.835937-7.839844-7.835937h-96.0625c-4.332031 0-7.839844 3.507813-7.839844 7.835937.003907 4.328126 3.511719 7.835938 7.839844 7.835938zm0 0"/></g></svg>