<?xml version="1.0" encoding="iso-8859-1"?>
<!-- Generator: Adobe Illustrator 19.0.0, SVG Export Plug-In . SVG Version: 6.00 Build 0)  -->
<svg version="1.1" id="Capa_1" xmlns="http://www.w3.org/2000/svg" xmlns:xlink="http://www.w3.org/1999/xlink" x="0px" y="0px"
	 viewBox="0 0 512 512" style="enable-background:new 0 0 512 512;" xml:space="preserve">
<path style="fill:#EDEDED;" d="M8.31,99.833L68.185,9.669c0.9-1.355,2.418-2.169,4.043-2.169h300.256
	c5.361,0,9.707,4.346,9.707,9.707v477.586c0,5.361-4.346,9.707-9.707,9.707H17.207c-5.361,0-9.707-4.346-9.707-9.707V102.518
	C7.5,101.562,7.782,100.628,8.31,99.833z"/>
<path style="fill:#D8D8D8;" d="M382.191,17.207v477.586c0,5.361-4.346,9.707-9.707,9.707H350.16c5.361,0,9.707-4.346,9.707-9.707
	V17.207c0-5.361-4.346-9.707-9.707-9.707h22.324C377.845,7.5,382.191,11.846,382.191,17.207z"/>
<path style="fill:#C1C1C1;" d="M8.31,99.833l0.474-0.714l59.401-89.45c0.381-0.573,0.876-1.042,1.44-1.401v83.078
	c0,5.361-4.346,9.707-9.707,9.707H7.731C7.867,100.624,8.059,100.212,8.31,99.833z"/>
<path style="fill:#F53737;" d="M455.965,463.73h-262.09c-26.805,0-48.535-21.73-48.535-48.535l0,0
	c0-26.805,21.73-48.535,48.535-48.535h262.09c26.805,0,48.535,21.73,48.535,48.535l0,0C504.5,442.001,482.77,463.73,455.965,463.73z
	"/>
<path style="fill:#FE5E47;" d="M429.756,463.73H193.875c-26.805,0-48.535-21.73-48.535-48.535l0,0
	c0-26.805,21.73-48.535,48.535-48.535h235.881c26.805,0,48.535,21.73,48.535,48.535l0,0
	C478.291,442.001,456.561,463.73,429.756,463.73z"/>
<path style="fill:#AF2B2B;" d="M213.289,415.195c0,10.722-8.692,19.414-19.414,19.414s-19.414-8.692-19.414-19.414
	s8.692-19.414,19.414-19.414S213.289,404.473,213.289,415.195z M259.883,395.781c-10.722,0-19.414,8.692-19.414,19.414
	s8.692,19.414,19.414,19.414c10.722,0,19.414-8.692,19.414-19.414S270.605,395.781,259.883,395.781z M327.832,395.781
	c-10.722,0-19.414,8.692-19.414,19.414s8.692,19.414,19.414,19.414s19.414-8.692,19.414-19.414S338.554,395.781,327.832,395.781z"/>
<path style="fill:#61AE9F;" d="M455.965,327.832h-262.09c-26.805,0-48.535-21.73-48.535-48.535l0,0
	c0-26.805,21.73-48.535,48.535-48.535h262.09c26.805,0,48.535,21.73,48.535,48.535l0,0
	C504.5,306.102,482.77,327.832,455.965,327.832z"/>
<path style="fill:#7CC3AC;" d="M429.756,327.832H193.875c-26.805,0-48.535-21.73-48.535-48.535l0,0
	c0-26.805,21.73-48.535,48.535-48.535h235.881c26.805,0,48.535,21.73,48.535,48.535l0,0
	C478.291,306.102,456.561,327.832,429.756,327.832z"/>
<path style="fill:#4A7273;" d="M213.289,279.297c0,10.722-8.692,19.414-19.414,19.414s-19.414-8.692-19.414-19.414
	s8.692-19.414,19.414-19.414S213.289,268.575,213.289,279.297z M259.883,259.883c-10.722,0-19.414,8.692-19.414,19.414
	s8.692,19.414,19.414,19.414c10.722,0,19.414-8.692,19.414-19.414S270.605,259.883,259.883,259.883z"/>
<path style="fill:#FF904E;" d="M455.965,191.934h-262.09c-26.805,0-48.535-21.73-48.535-48.535l0,0
	c0-26.805,21.73-48.535,48.535-48.535h262.09c26.805,0,48.535,21.73,48.535,48.535l0,0
	C504.5,170.204,482.77,191.934,455.965,191.934z"/>
<path style="fill:#FFB05F;" d="M429.756,191.934H193.875c-26.805,0-48.535-21.73-48.535-48.535l0,0
	c0-26.805,21.73-48.535,48.535-48.535h235.881c26.805,0,48.535,21.73,48.535,48.535l0,0
	C478.291,170.204,456.561,191.934,429.756,191.934z"/>
<path style="fill:#FF733D;" d="M213.289,143.398c0,10.722-8.692,19.414-19.414,19.414s-19.414-8.692-19.414-19.414
	s8.692-19.414,19.414-19.414S213.289,132.676,213.289,143.398z M259.883,123.984c-10.722,0-19.414,8.692-19.414,19.414
	s8.692,19.414,19.414,19.414c10.722,0,19.414-8.692,19.414-19.414S270.605,123.984,259.883,123.984z M327.832,123.984
	c-10.722,0-19.414,8.692-19.414,19.414s8.692,19.414,19.414,19.414s19.414-8.692,19.414-19.414S338.554,123.984,327.832,123.984z
	 M395.781,123.984c-10.722,0-19.414,8.692-19.414,19.414s8.692,19.414,19.414,19.414s19.414-8.692,19.414-19.414
	S406.503,123.984,395.781,123.984z"/>
<path d="M48.535,177.376c0-4.143,3.358-7.5,7.5-7.5h29.121c4.142,0,7.5,3.357,7.5,7.5s-3.358,7.5-7.5,7.5H56.035
	C51.893,184.876,48.535,181.519,48.535,177.376z M104.57,145.605H56.035c-4.142,0-7.5,3.357-7.5,7.5s3.358,7.5,7.5,7.5h48.535
	c4.142,0,7.5-3.357,7.5-7.5S108.712,145.605,104.57,145.605z M56.035,324.171h19.414c4.142,0,7.5-3.357,7.5-7.5s-3.358-7.5-7.5-7.5
	H56.035c-4.142,0-7.5,3.357-7.5,7.5S51.893,324.171,56.035,324.171z M0,424.9V102.518c0-1.264,0.195-2.506,0.568-3.693
	c0.001-0.003,0.002-0.005,0.003-0.008c0.346-1.101,0.843-2.154,1.491-3.13L61.937,5.52c0.923-1.39,2.105-2.541,3.448-3.436
	c0.205-0.141,0.416-0.272,0.635-0.392C67.878,0.609,70.005,0,72.229,0h300.256c9.488,0,17.207,7.719,17.207,17.207V67.36
	c0,4.143-3.358,7.5-7.5,7.5s-7.5-3.357-7.5-7.5V17.207c0-1.217-0.99-2.207-2.207-2.207H77.125v76.346
	c0,9.488-7.719,17.207-17.207,17.207H15V424.9c0,4.143-3.358,7.5-7.5,7.5S0,429.043,0,424.9z M21.484,93.553h38.434
	c1.217,0,2.207-0.99,2.207-2.207V32.352L21.484,93.553z M112.07,428.298c0-4.143-3.358-7.5-7.5-7.5H56.035
	c-4.142,0-7.5,3.357-7.5,7.5s3.358,7.5,7.5,7.5h48.535C108.712,435.798,112.07,432.44,112.07,428.298z M104.57,284.899H56.035
	c-4.142,0-7.5,3.357-7.5,7.5s3.358,7.5,7.5,7.5h48.535c4.142,0,7.5-3.357,7.5-7.5S108.712,284.899,104.57,284.899z M56.035,445.069
	c-4.142,0-7.5,3.357-7.5,7.5s3.358,7.5,7.5,7.5h29.121c4.142,0,7.5-3.357,7.5-7.5s-3.358-7.5-7.5-7.5H56.035z M232.969,415.195
	c0-14.841,12.074-26.914,26.914-26.914s26.914,12.073,26.914,26.914s-12.074,26.914-26.914,26.914S232.969,430.036,232.969,415.195z
	 M247.969,415.195c0,6.569,5.345,11.914,11.914,11.914s11.914-5.345,11.914-11.914s-5.345-11.914-11.914-11.914
	S247.969,408.626,247.969,415.195z M286.797,279.297c0,14.841-12.074,26.914-26.914,26.914s-26.914-12.073-26.914-26.914
	s12.074-26.914,26.914-26.914S286.797,264.456,286.797,279.297z M271.797,279.297c0-6.569-5.345-11.914-11.914-11.914
	s-11.914,5.345-11.914,11.914s5.345,11.914,11.914,11.914S271.797,285.866,271.797,279.297z M220.789,143.398
	c0,14.841-12.074,26.914-26.914,26.914s-26.914-12.073-26.914-26.914s12.074-26.914,26.914-26.914S220.789,128.558,220.789,143.398z
	 M205.789,143.398c0-6.569-5.345-11.914-11.914-11.914s-11.914,5.345-11.914,11.914s5.345,11.914,11.914,11.914
	S205.789,149.968,205.789,143.398z M220.789,279.297c0,14.841-12.074,26.914-26.914,26.914s-26.914-12.073-26.914-26.914
	s12.074-26.914,26.914-26.914S220.789,264.456,220.789,279.297z M205.789,279.297c0-6.569-5.345-11.914-11.914-11.914
	s-11.914,5.345-11.914,11.914s5.345,11.914,11.914,11.914S205.789,285.866,205.789,279.297z M389.691,335.332v23.828h66.273
	c30.898,0,56.035,25.138,56.035,56.035s-25.137,56.035-56.035,56.035h-66.273v23.563c0,9.488-7.719,17.207-17.207,17.207H17.207
	C7.719,512,0,504.281,0,494.793v-40.77c0-4.143,3.358-7.5,7.5-7.5s7.5,3.357,7.5,7.5v40.77c0,1.217,0.99,2.207,2.207,2.207h355.277
	c1.217,0,2.207-0.99,2.207-2.207V471.23H193.875c-30.898,0-56.035-25.138-56.035-56.035s25.137-56.035,56.035-56.035h180.816
	v-23.828H193.875c-30.898,0-56.035-25.138-56.035-56.035s25.137-56.035,56.035-56.035h180.816v-23.828H193.875
	c-30.898,0-56.035-25.138-56.035-56.035s25.137-56.035,56.035-56.035h262.09c30.898,0,56.035,25.138,56.035,56.035
	s-25.137,56.035-56.035,56.035h-66.273v23.828h66.273c30.898,0,56.035,25.138,56.035,56.035s-25.137,56.035-56.035,56.035H389.691z
	 M455.965,184.434c22.627,0,41.035-18.408,41.035-41.035s-18.408-41.035-41.035-41.035h-262.09
	c-22.627,0-41.035,18.408-41.035,41.035s18.408,41.035,41.035,41.035H455.965z M193.875,374.16
	c-22.627,0-41.035,18.408-41.035,41.035s18.408,41.035,41.035,41.035h262.09c22.627,0,41.035-18.408,41.035-41.035
	s-18.408-41.035-41.035-41.035H193.875z M455.965,320.332c22.627,0,41.035-18.408,41.035-41.035s-18.408-41.035-41.035-41.035
	h-262.09c-22.627,0-41.035,18.408-41.035,41.035s18.408,41.035,41.035,41.035H455.965z M193.875,388.281
	c14.84,0,26.914,12.073,26.914,26.914s-12.074,26.914-26.914,26.914s-26.914-12.073-26.914-26.914S179.035,388.281,193.875,388.281z
	 M193.875,403.281c-6.569,0-11.914,5.345-11.914,11.914s5.345,11.914,11.914,11.914s11.914-5.345,11.914-11.914
	S200.444,403.281,193.875,403.281z M286.797,143.398c0,14.841-12.074,26.914-26.914,26.914s-26.914-12.073-26.914-26.914
	s12.074-26.914,26.914-26.914S286.797,128.558,286.797,143.398z M271.797,143.398c0-6.569-5.345-11.914-11.914-11.914
	s-11.914,5.345-11.914,11.914s5.345,11.914,11.914,11.914S271.797,149.968,271.797,143.398z M300.918,415.195
	c0-14.841,12.074-26.914,26.914-26.914s26.914,12.073,26.914,26.914s-12.074,26.914-26.914,26.914S300.918,430.036,300.918,415.195z
	 M315.918,415.195c0,6.569,5.345,11.914,11.914,11.914s11.914-5.345,11.914-11.914s-5.345-11.914-11.914-11.914
	S315.918,408.626,315.918,415.195z M354.746,143.398c0,14.841-12.074,26.914-26.914,26.914s-26.914-12.073-26.914-26.914
	s12.074-26.914,26.914-26.914S354.746,128.558,354.746,143.398z M339.746,143.398c0-6.569-5.345-11.914-11.914-11.914
	s-11.914,5.345-11.914,11.914s5.345,11.914,11.914,11.914S339.746,149.968,339.746,143.398z M422.695,143.398
	c0,14.841-12.074,26.914-26.914,26.914s-26.914-12.073-26.914-26.914s12.074-26.914,26.914-26.914S422.695,128.558,422.695,143.398z
	 M407.695,143.398c0-6.569-5.345-11.914-11.914-11.914s-11.914,5.345-11.914,11.914s5.345,11.914,11.914,11.914
	S407.695,149.968,407.695,143.398z"/>
<g>
</g>
<g>
</g>
<g>
</g>
<g>
</g>
<g>
</g>
<g>
</g>
<g>
</g>
<g>
</g>
<g>
</g>
<g>
</g>
<g>
</g>
<g>
</g>
<g>
</g>
<g>
</g>
<g>
</g>
</svg>
