<?xml version="1.0" encoding="utf-8"?>
<!-- Generator: Adobe Illustrator 22.1.0, SVG Export Plug-In . SVG Version: 6.00 Build 0)  -->
<svg version="1.1" id="all" xmlns="http://www.w3.org/2000/svg" xmlns:xlink="http://www.w3.org/1999/xlink" x="0px" y="0px"
	 viewBox="0 0 1017.2 1019.8" style="enable-background:new 0 0 1017.2 1019.8;" xml:space="preserve">
<style type="text/css">
	.st0{fill:#0B6678;}
	.st1{fill:#07404A;}
	.st2{fill:none;stroke:#000000;stroke-width:19.8425;stroke-linecap:round;stroke-linejoin:round;stroke-miterlimit:2.4142;}
	.st3{fill:#FF8200;}
</style>
<g id="font">
	<g>
		<g>
			<ellipse id="area_1_" class="st0" cx="508.6" cy="509.9" rx="498.7" ry="500"/>
			<path id="shadow" class="st1" d="M874.4,162.6c-15.2-16.2-31.1-31.2-47.8-44.9c144.8,201.9,121.2,485.1-64.7,659.7
				s-469.2,179.8-660.8,21.8c12.6,17.6,26.5,34.5,41.6,50.8c189.3,202.6,506.6,212.9,708.6,23.1S1063.7,365.1,874.4,162.6
				L874.4,162.6z"/>
			<path id="outline_1_" class="st2" d="M19,605.1c-33.2-172.5,25.4-357.3,169.1-478.2C399-50.6,713.6-23,890.6,188.5
				s149.5,526.9-61.5,704.4s-525.5,149.9-702.5-61.6C91.9,789.9,65.1,744.5,46,696.9"/>
		</g>
		<g>
			<g id="area">
				<path id="s" class="st3" d="M483.9,616.7c0,54.3-22.8,100.8-68.4,139.6c-40,34.2-88.7,56-146,65.4c-2.1,0.3-3.9,0.4-5.2,0.4
					c-6.1,0-19.7-18.8-40.8-56.3c-21.1-37.6-31.6-60.5-31.6-68.8c0-2.9,2-4.8,6-5.6c38.7-8.8,64.3-16.3,76.8-22.5
					c27.7-13.9,41.6-34.5,41.6-61.8c0-17.4-9.1-36.8-27.2-58.1c-31.5-36.4-48.5-56.5-51.2-60.6c-18.4-27.8-27.6-58.6-27.6-92.2
					c0-48.9,22.5-89.6,67.6-121.9c36.8-26.7,82-44.1,135.6-52.1c2.9-0.3,5.2-0.4,6.8-0.4c4,0,7.2,3.2,9.6,9.6
					c6.9,19.5,23.1,54.8,48.4,105.9c0.8,1.6,1.2,2.9,1.2,4c0,4.5-2.4,6.8-7.2,6.8c-2.1,0-5.7-0.4-10.8-1.2
					c-5.1-0.8-8.9-1.2-11.6-1.2c-19.2,0-36,4.4-50.4,13.2c-17.3,10.2-26,24.3-26,42.5c0,16.3,9.6,36.4,28.8,60.2
					c33.9,42.8,51.6,65.2,53.2,67.4C474.5,558.3,483.9,587.5,483.9,616.7z"/>
				<path id="c" class="st3" d="M812.3,537.3c-0.3,0-8.3-2.1-24.2-6.4c-15.9-4.3-28.7-6.4-38.6-6.4c-23.7,0-42.7,7.2-56.8,21.5
					s-21.2,33.4-21.2,57.1c0,24.6,7.7,43.9,23.2,58c15.5,14,35.6,21.1,60.4,21.1c11.7,0,24.9-3,39.6-9c14.7-6,21.6-9,20.8-9
					c4.5,0,10.4,17,17.6,50.9c6.1,31,9.2,51.6,9.2,61.8s-16.5,18.8-49.6,26.1c-25.6,5.6-46.3,8.4-62,8.4
					c-58.7,0-107.1-19.8-145.2-59.4c-38.1-39.6-57.2-88.9-57.2-148c0-58.6,19.1-107.8,57.4-147.8c38.3-40,86.6-60,145-60
					c39.7,0,74.7,8.6,104.8,25.7c6.9,3.7,10.4,7.4,10.4,10.8c0,3.5-4,19.3-12,47.3c-7.5,27-12.3,43.3-14.6,48.9
					C817.1,534.5,814.7,537.3,812.3,537.3z"/>
			</g>
			<path id="outline" class="st2" d="M438.4,507c28,35.4,45.7,56.2,45.7,109.7c0,54.2-22.8,100.7-68.4,139.6
				c-39.9,34.2-88.5,56-145.8,65.3c-2.2,0.3-3.8,0.4-5.2,0.4c-6.1,0-19.7-18.8-40.7-56.3c-21-37.4-31.5-60.4-31.5-68.6
				c0-3,2-4.8,6-5.6c38.4-8.9,63.9-16.4,76.3-22.6c27.6-14,41.4-34.6,41.4-61.9c0-17.4-9-36.8-27.2-58.2
				c-31.3-36.4-48.3-56.5-50.9-60.6c-18.4-27.8-27.6-58.5-27.6-92.1c0-49,22.5-89.7,67.6-122c36.9-26.8,82.1-44.1,135.7-52.2
				c3-0.3,5.2-0.4,6.8-0.4c4,0,7.2,3.1,9.7,9.6c7,19.6,23.1,54.9,48.5,106.1c0.8,1.6,1.2,2.9,1.2,4c0,4.5-2.5,6.8-7.2,6.8
				c-2.2,0-5.7-0.4-10.8-1.2c-5.2-0.8-9-1.2-11.7-1.2c-19.3,0-36.2,4.5-50.7,13.3c-17.3,10.1-26.1,24.2-26.1,42.4
				c0,16.3,9.6,36.3,28.8,60.1 M622.3,429c38.1-29,70.6-35.4,108.1-32.5c39.5,3.1,74.5,8.6,104.6,25.7c7,3.7,10.4,7.3,10.4,10.8
				c0,3.4-4,19.2-12,47.4c-7.4,27-12.3,43.3-14.5,48.9c-2.3,5.6-4.6,8.5-7.1,8.5c-0.3,0-8.3-2.2-24-6.6c-15.8-4.4-28.7-6.6-38.5-6.6
				c-23.6,0-42.3,7.1-56.4,21.5c-14.1,14.2-21.2,33.4-21.2,57.1c0,24.6,7.8,44.1,23.2,58c15.4,14.1,35.5,21.1,60.2,21.1
				c11.7,0,25-2.9,39.6-8.6s21.6-8.6,20.8-8.6c4.5,0,10.4,16.8,17.5,50.6c6.1,30.8,9.1,51.2,9.1,61.3c0,10-16.5,18.6-49.6,25.9
				c-25.5,5.6-46.3,8.3-62,8.3c-58.6,0-106.9-19.7-145-59.3s-57.2-88.8-57.2-148c0-58.5,10.4-92.8,46.8-135.7"/>
		</g>
	</g>
</g>
</svg>
