<?xml version="1.0" encoding="iso-8859-1"?>
<!-- Generator: Adobe Illustrator 19.0.0, SVG Export Plug-In . SVG Version: 6.00 Build 0)  -->
<svg version="1.1" id="Layer_1" xmlns="http://www.w3.org/2000/svg" xmlns:xlink="http://www.w3.org/1999/xlink" x="0px" y="0px"
	 viewBox="0 0 512 512" style="enable-background:new 0 0 512 512;" xml:space="preserve">
<circle style="fill:#78BAEB;" cx="256.636" cy="256" r="247.916"/>
<path style="fill:#59AAE7;" d="M256.637,8.084c-10.96,0-21.752,0.72-32.337,2.099C345.941,26.029,439.879,130.04,439.879,256
	S345.941,485.971,224.3,501.817c10.585,1.379,21.377,2.099,32.337,2.099c136.921,0,247.916-110.996,247.916-247.916
	S393.557,8.084,256.637,8.084z"/>
<path style="fill:#FFFFFF;" d="M256,450.56c-107.281,0-194.56-87.279-194.56-194.56S148.719,61.44,256,61.44
	S450.56,148.719,450.56,256S363.281,450.56,256,450.56z"/>
<path style="fill:#78BAEB;" d="M256,407.444c-83.507,0-151.444-67.938-151.444-151.444S172.493,104.556,256,104.556
	S407.444,172.493,407.444,256S339.507,407.444,256,407.444z"/>
<path style="fill:#C6C5CB;" d="M225.277,224.516l62.207,62.206l-89.117,29.707c-1.728,0.576-3.373-1.068-2.796-2.796
	L225.277,224.516z"/>
<path style="fill:#FF3501;" d="M225.277,224.516l88.4-28.982c1.721-0.565,3.353,1.068,2.79,2.79l-28.982,88.399L225.277,224.516z"/>
<path d="M437.019,74.982C388.667,26.628,324.379,0,256,0S123.333,26.628,74.981,74.982C26.628,123.333,0,187.62,0,256
	s26.628,132.667,74.981,181.019C123.333,485.372,187.62,512,256,512s132.667-26.628,181.019-74.982
	C485.372,388.667,512,324.379,512,256S485.372,123.333,437.019,74.982z M256,495.832C123.756,495.832,16.168,388.244,16.168,256
	S123.756,16.168,256,16.168S495.832,123.756,495.832,256S388.244,495.832,256,495.832z"/>
<path d="M256,53.895C144.559,53.895,53.895,144.559,53.895,256S144.559,458.105,256,458.105S458.105,367.441,458.105,256
	S367.441,53.895,256,53.895z M256,441.937c-102.526,0-185.937-83.411-185.937-185.937S153.474,70.063,256,70.063
	S441.937,153.474,441.937,256S358.526,441.937,256,441.937z"/>
<path d="M260.168,97.064c-30.144-0.776-58.474,6.894-82.802,20.8c-4.55,2.601-5.322,8.857-1.616,12.563l0.139,0.139
	c2.559,2.56,6.504,3.038,9.648,1.246c22.226-12.662,48.157-19.537,75.734-18.538c75.259,2.726,135.883,64.28,137.515,139.571
	c1.761,81.265-64.737,147.741-146.011,145.939c-76.434-1.693-138.412-64.121-139.58-140.565
	c-0.62-40.544,15.755-77.337,42.44-103.725c3.151-3.115,3.163-8.197,0.029-11.33c-0.038-0.038-0.077-0.077-0.114-0.114
	c-3.115-3.115-8.164-3.128-11.295-0.03c-29.795,29.472-48.037,70.6-47.218,115.904c1.535,84.922,70.465,154.146,155.38,156.025
	c90.498,2.002,164.537-72.04,162.533-162.539C413.078,167.962,344.61,99.239,260.168,97.064z"/>
<path d="M314.419,187.355l-91.463,30.487c-2.414,0.805-4.308,2.699-5.114,5.112l-30.487,91.463
	c-0.968,2.905-0.212,6.108,1.953,8.274c1.541,1.54,3.607,2.367,5.717,2.367c0.855,0,1.718-0.136,2.556-0.415l91.463-30.487
	c2.414-0.805,4.308-2.699,5.113-5.112l30.487-91.463c0.968-2.905,0.212-6.108-1.953-8.274
	C320.526,187.144,317.322,186.388,314.419,187.355z M229.045,240.479l42.475,42.476l-63.713,21.238L229.045,240.479z
	 M282.955,271.521l-42.476-42.476l63.713-21.239L282.955,271.521z"/>
<g>
</g>
<g>
</g>
<g>
</g>
<g>
</g>
<g>
</g>
<g>
</g>
<g>
</g>
<g>
</g>
<g>
</g>
<g>
</g>
<g>
</g>
<g>
</g>
<g>
</g>
<g>
</g>
<g>
</g>
</svg>
